<svg xmlns="http://www.w3.org/2000/svg" width="1064" height="986" viewBox="0 0 1064 986">
<g>
<path d="M 212.50 985.28 C205.64,983.59 193.91,974.48 187.49,965.85 C183.23,960.12 175.76,945.96 174.01,940.29 C173.37,938.20 172.58,935.83 172.26,935.00 C171.94,934.17 171.60,933.28 171.50,933.00 C171.41,932.72 170.86,931.38 170.29,930.00 C169.72,928.62 168.92,925.47 168.51,923.00 C168.11,920.53 167.41,918.04 166.96,917.48 C166.50,916.92 165.45,911.52 164.62,905.48 C163.78,899.44 162.79,892.70 162.42,890.50 C161.25,883.62 160.82,839.76 161.88,836.00 C162.42,834.08 163.58,826.23 164.46,818.57 C165.34,810.91 166.43,804.16 166.90,803.57 C167.36,802.98 168.31,799.35 169.00,795.50 C169.69,791.65 170.71,787.94 171.25,787.25 C171.80,786.56 171.91,786.00 171.50,786.00 C171.09,786.00 171.19,785.44 171.72,784.75 C172.25,784.06 173.27,781.25 173.98,778.50 C175.79,771.46 182.39,756.93 188.74,746.00 C193.24,738.25 207.58,724.82 215.50,720.93 L 222.50 717.50 L 245.35 717.38 L 268.20 717.25 L 275.60 709.90 C279.67,705.86 283.00,702.31 283.00,702.03 C283.00,701.74 273.81,701.50 262.57,701.50 C243.51,701.50 241.96,701.36 239.32,699.44 C232.83,694.69 231.55,685.60 236.89,682.21 C242.21,678.83 256.83,666.24 267.87,655.53 C278.07,645.64 296.00,625.24 296.00,623.53 C296.00,623.16 297.97,620.08 300.38,616.68 C306.24,608.39 313.00,595.40 313.00,592.40 C313.00,591.07 313.41,589.19 313.91,588.24 C314.41,587.28 315.58,582.67 316.50,578.00 C317.43,573.33 318.55,569.05 319.00,568.50 C319.44,567.95 320.34,565.47 321.00,563.00 C321.65,560.53 323.27,556.12 324.60,553.22 C325.92,550.32 327.00,547.61 327.00,547.21 C327.00,546.50 337.80,524.89 341.59,518.03 C342.64,516.13 345.86,511.29 348.75,507.29 C351.64,503.29 354.00,499.82 354.00,499.57 C354.00,499.32 351.86,498.81 349.25,498.43 C342.63,497.48 336.01,494.84 327.85,489.91 L 320.86 485.69 L 313.18 493.28 C301.50,504.83 287.50,513.97 276.00,517.57 C270.40,519.32 260.62,519.34 251.69,517.61 C245.91,516.49 244.23,515.66 240.69,512.17 C236.96,508.50 231.07,498.71 229.55,493.66 C229.08,492.11 227.75,492.97 221.44,498.86 C213.56,506.22 209.79,508.79 199.00,514.17 C188.52,519.39 175.83,519.27 165.19,513.84 C163.20,512.83 160.99,512.00 160.27,512.00 C157.34,512.00 150.12,503.87 148.42,498.67 C147.49,495.83 146.37,493.04 145.93,492.47 C145.48,491.90 144.73,489.20 144.25,486.47 L 143.39 481.50 L 141.72 484.64 C138.97,489.84 121.95,506.45 115.89,509.84 C111.34,512.39 108.45,513.18 100.60,513.99 C89.57,515.13 84.00,514.29 80.44,510.95 C77.36,508.05 72.25,497.40 71.40,492.11 C71.04,489.82 70.35,487.71 69.87,487.42 C69.39,487.12 69.00,484.61 69.00,481.84 L 69.00 476.80 L 65.75 478.96 C63.96,480.14 60.92,481.81 59.00,482.68 C57.08,483.54 54.64,484.69 53.59,485.23 C50.56,486.79 36.25,489.21 27.06,489.70 C22.08,489.97 17.78,490.74 16.58,491.58 C13.75,493.57 13.10,493.38 11.87,490.25 C7.63,479.40 9.28,450.39 15.96,418.50 C17.11,413.00 18.47,407.60 18.98,406.50 C19.50,405.40 20.41,402.48 21.02,400.00 C22.38,394.41 27.65,378.86 29.99,373.50 C30.95,371.30 32.04,368.53 32.41,367.35 C33.23,364.68 48.02,335.21 51.76,328.78 C65.81,304.60 77.30,289.79 96.29,271.35 C116.64,251.60 136.03,238.57 162.00,227.23 C169.22,224.08 184.12,219.25 189.00,218.48 C191.48,218.09 193.95,217.42 194.50,216.99 C196.12,215.71 212.69,214.01 223.53,214.00 C234.48,214.00 249.34,215.51 252.50,216.95 C253.60,217.45 256.98,218.40 260.00,219.06 C269.53,221.14 285.85,228.39 296.32,235.21 C299.52,237.29 302.36,239.00 302.62,239.00 C302.89,239.00 306.26,241.59 310.12,244.75 C313.98,247.91 318.58,251.62 320.35,253.00 C324.55,256.28 349.69,281.39 353.34,285.95 C359.06,293.11 388.73,323.53 396.50,330.21 C400.90,333.99 405.42,337.96 406.54,339.04 C407.65,340.12 408.90,341.00 409.31,341.00 C409.71,341.00 412.85,343.16 416.27,345.79 C422.12,350.29 437.39,360.00 438.61,360.00 C438.91,360.00 435.98,356.51 432.08,352.25 C428.19,347.99 425.01,344.11 425.00,343.64 C425.00,343.17 423.69,341.13 422.09,339.11 C411.93,326.29 398.35,298.88 393.05,280.50 C392.10,277.20 391.02,273.83 390.65,273.00 C390.28,272.17 389.05,267.00 387.92,261.50 C386.79,256.00 385.44,249.48 384.92,247.00 C382.20,233.92 382.91,183.35 385.96,173.57 C386.48,171.88 387.65,166.45 388.55,161.50 C389.45,156.55 390.55,152.05 390.98,151.50 C391.41,150.95 392.11,148.93 392.52,147.00 C394.84,136.11 409.61,104.39 419.51,89.00 C425.92,79.05 438.71,63.27 446.62,55.55 C468.80,33.91 493.54,18.68 523.00,8.50 C523.28,8.40 524.17,8.04 525.00,7.68 C526.27,7.14 534.11,5.10 541.50,3.40 C552.71,0.82 566.00,-0.11 584.50,0.40 C608.68,1.05 617.99,2.71 638.64,9.99 C650.97,14.35 677.00,27.31 677.00,29.10 C677.00,29.59 677.49,30.00 678.09,30.00 C680.59,30.00 700.21,45.60 709.14,54.69 C718.43,64.14 732.94,82.30 736.17,88.51 C737.02,90.15 739.54,95.00 741.76,99.28 C743.98,103.55 746.61,109.74 747.59,113.03 L 749.38 119.00 L 755.14 119.00 C758.31,119.00 761.94,119.41 763.20,119.91 C764.47,120.41 768.42,121.50 772.00,122.33 C775.58,123.15 779.85,124.39 781.50,125.08 C783.15,125.77 786.30,127.05 788.50,127.92 C791.85,129.24 799.28,133.03 815.89,141.89 C817.33,142.66 820.53,144.73 823.00,146.50 C825.47,148.27 828.02,149.90 828.66,150.11 C832.15,151.28 851.09,167.15 861.97,178.03 C882.49,198.54 893.05,214.37 902.40,238.61 C904.28,243.50 906.15,249.30 906.54,251.50 C906.94,253.70 907.61,255.95 908.04,256.50 C910.70,259.89 912.07,296.82 909.97,308.20 C908.47,316.31 904.61,325.48 900.35,331.07 C896.99,335.48 896.45,335.82 894.98,334.48 C894.08,333.67 893.00,333.00 892.59,333.00 C892.18,333.00 889.89,331.40 887.51,329.45 C884.56,327.04 882.95,326.28 882.46,327.07 C881.66,328.35 857.79,340.00 855.95,340.00 C855.32,340.00 853.38,340.65 851.65,341.44 C849.92,342.24 845.80,343.62 842.50,344.51 C839.20,345.40 835.60,346.55 834.50,347.06 C832.68,347.92 825.09,349.69 806.83,353.52 C793.03,356.42 773.83,358.28 753.65,358.67 C742.01,358.90 732.29,358.68 731.65,358.17 C731.02,357.67 728.21,356.98 725.41,356.62 C719.58,355.88 709.45,353.42 706.50,352.03 C700.83,349.36 696.67,348.09 695.64,348.71 C695.01,349.09 691.75,351.73 688.39,354.57 C685.03,357.41 681.65,359.96 680.89,360.23 C679.93,360.56 681.20,362.56 685.00,366.70 C691.24,373.50 704.12,389.98 706.75,394.53 C714.22,407.47 713.99,407.26 730.27,415.40 C738.65,419.58 745.88,423.01 746.35,423.00 C746.82,423.00 748.62,423.65 750.35,424.44 C752.08,425.24 756.20,426.64 759.50,427.57 C762.80,428.49 765.95,429.59 766.50,430.01 C767.05,430.44 771.10,431.54 775.50,432.47 C779.90,433.39 784.17,434.41 785.00,434.73 C785.83,435.05 787.10,435.22 787.82,435.10 C788.55,434.98 789.68,435.31 790.32,435.83 C790.97,436.36 795.78,437.36 801.00,438.07 C806.22,438.77 811.04,439.75 811.69,440.25 C813.50,441.61 841.67,442.30 848.50,441.15 C856.15,439.86 876.19,436.04 877.50,435.62 C878.05,435.45 879.17,435.04 880.00,434.71 C880.83,434.38 884.03,433.62 887.12,433.02 C890.21,432.41 893.40,431.37 894.22,430.71 C895.03,430.04 896.27,426.80 896.97,423.50 C899.40,412.05 908.61,401.61 922.00,395.13 C929.40,391.55 929.67,391.50 942.37,391.45 L 955.23 391.39 L 961.42 383.34 C964.82,378.91 969.34,371.96 971.46,367.89 C978.66,354.11 989.73,342.34 997.26,340.47 C998.78,340.09 1000.27,339.38 1000.57,338.89 C1001.64,337.16 1013.39,337.90 1017.41,339.95 C1026.62,344.65 1028.34,348.47 1028.43,364.50 L 1028.50 376.50 L 1035.01 376.18 C1040.86,375.89 1041.75,376.11 1043.84,378.33 C1049.50,384.36 1049.35,403.66 1043.51,421.55 C1040.45,430.95 1040.45,431.00 1043.30,431.00 C1044.61,431.00 1047.03,432.47 1048.89,434.38 C1051.64,437.22 1052.26,438.73 1052.71,443.75 C1053.31,450.40 1051.75,461.13 1049.36,466.79 C1045.34,476.29 1040.64,485.04 1036.44,490.85 C1031.90,497.13 1031.87,497.22 1033.93,498.66 C1040.87,503.52 1040.67,521.19 1033.53,534.50 C1028.55,543.77 1019.35,550.82 1008.00,554.06 C1005.53,554.77 1003.04,555.69 1002.47,556.11 C1001.91,556.53 999.19,557.17 996.43,557.54 L 991.41 558.20 L 993.94 563.32 C996.24,567.97 996.47,569.59 996.49,580.97 C996.49,587.86 996.09,594.40 995.60,595.50 C995.10,596.60 994.60,597.95 994.47,598.50 C993.21,604.05 989.82,608.61 982.72,614.33 C975.05,620.51 967.38,623.00 955.98,623.00 C950.67,623.00 946.01,622.67 945.61,622.28 C945.21,621.88 941.81,620.83 938.05,619.95 L 931.22 618.34 L 930.54 624.39 C930.16,627.71 929.55,630.90 929.19,631.47 C928.83,632.03 928.49,632.72 928.43,633.00 C928.38,633.28 927.81,634.77 927.17,636.32 C926.52,637.86 926.00,639.49 926.00,639.93 C926.00,640.37 923.84,642.75 921.19,645.22 C917.05,649.09 915.59,649.82 910.71,650.43 C907.59,650.82 904.77,651.56 904.46,652.07 C903.72,653.26 887.30,653.30 886.57,652.11 C886.27,651.63 884.33,650.92 882.26,650.54 C878.64,649.88 866.26,644.20 859.00,639.87 C857.08,638.72 852.63,635.34 849.12,632.35 C845.61,629.36 842.27,627.08 841.68,627.27 C841.10,627.47 840.20,628.95 839.69,630.56 C838.66,633.77 834.63,638.56 831.55,640.23 C824.85,643.85 807.81,642.08 796.50,636.58 C784.83,630.91 770.09,617.04 764.02,606.03 C761.44,601.35 754.49,587.15 753.24,584.00 C752.32,581.70 752.18,581.90 751.50,586.50 C751.08,589.25 750.41,591.95 749.99,592.50 C749.57,593.05 748.90,595.53 748.50,598.00 C747.69,602.97 741.79,621.71 739.48,626.65 C738.66,628.38 738.00,630.12 738.00,630.51 C738.00,632.42 729.12,650.58 722.82,661.53 C718.13,669.69 710.07,681.39 704.82,687.65 C693.95,700.61 689.88,705.17 686.32,708.36 C684.22,710.25 678.66,715.20 673.96,719.37 L 665.42 726.94 L 667.05 736.22 C667.94,741.33 668.95,746.17 669.31,747.00 C670.37,749.50 672.00,768.61 672.00,778.57 C672.00,789.56 672.67,790.59 681.77,793.55 C684.92,794.58 687.95,795.72 688.50,796.09 C690.38,797.36 700.09,799.00 705.72,799.00 C712.14,799.00 724.00,797.13 724.00,796.12 C724.00,795.74 726.14,794.82 728.75,794.06 C731.36,793.30 735.07,791.85 736.99,790.84 C738.90,789.83 740.80,789.00 741.21,789.00 C741.61,789.00 744.32,787.92 747.22,786.60 C750.12,785.27 754.53,783.65 757.00,783.00 C759.47,782.34 761.95,781.45 762.50,781.01 C764.70,779.26 783.03,777.00 795.05,777.00 C807.24,777.00 823.19,778.99 826.78,780.96 C827.73,781.48 830.53,782.82 833.00,783.94 C842.00,788.01 845.60,790.59 854.01,798.96 C862.49,807.42 869.74,817.01 872.88,823.93 C873.77,825.90 875.57,829.23 876.88,831.34 C879.07,834.85 879.22,835.90 878.69,843.83 C877.85,856.47 874.44,864.92 863.68,881.00 C849.71,901.87 831.25,917.07 803.00,930.95 C792.88,935.93 788.90,937.68 783.50,939.53 C780.75,940.47 777.15,941.81 775.50,942.50 C773.85,943.20 770.03,944.35 767.00,945.07 C763.97,945.79 761.05,946.70 760.50,947.09 C759.95,947.49 755.45,948.56 750.50,949.48 C745.55,950.39 740.77,951.53 739.88,952.00 C734.14,955.03 688.72,955.82 677.50,953.08 C675.30,952.54 669.24,951.17 664.03,950.03 C658.82,948.89 654.12,947.52 653.58,946.98 C653.04,946.44 652.03,946.00 651.33,946.00 C650.63,946.00 647.55,944.81 644.48,943.36 C633.43,938.13 624.27,927.40 618.00,912.35 C616.22,908.06 614.66,904.10 614.53,903.53 C614.40,902.96 614.04,901.83 613.72,901.00 C612.99,899.14 609.47,885.29 606.86,874.04 C605.78,869.39 604.54,865.12 604.11,864.54 C603.67,863.97 602.52,860.58 601.55,857.00 C600.58,853.42 599.42,850.05 598.98,849.50 C598.54,848.95 597.86,846.78 597.46,844.68 C596.84,841.34 596.16,840.59 592.12,838.81 C575.18,831.31 569.35,827.24 556.89,814.22 C547.62,804.53 541.45,794.86 540.78,789.00 C540.58,787.17 539.96,786.56 538.50,786.71 C528.52,787.78 519.08,789.38 517.10,790.34 C514.18,791.75 471.53,791.97 468.50,790.59 C467.40,790.09 462.85,788.90 458.39,787.95 C453.93,787.00 448.53,785.44 446.39,784.49 C434.93,779.37 428.14,775.89 425.06,773.58 C423.16,772.16 421.21,771.00 420.72,771.00 C420.22,771.00 417.50,772.95 414.66,775.34 C411.82,777.73 407.48,781.04 405.00,782.71 C399.09,786.70 381.70,795.64 377.12,797.04 C375.13,797.65 372.83,798.42 372.00,798.74 C371.17,799.06 370.27,799.40 370.00,799.50 C369.73,799.60 368.83,799.97 368.00,800.33 C366.61,800.94 351.35,804.42 344.50,805.69 C342.85,806.00 339.62,807.77 337.33,809.63 C335.04,811.48 332.75,813.00 332.25,813.00 C331.74,813.00 326.86,817.22 321.39,822.37 C310.35,832.79 306.62,838.73 304.95,848.56 C304.31,852.30 304.18,866.70 304.59,887.50 C305.27,921.42 304.57,932.77 301.43,938.77 C300.65,940.27 300.01,942.05 300.01,942.72 C299.99,945.34 293.55,956.44 289.20,961.34 C280.53,971.12 268.28,978.77 258.48,980.54 C256.29,980.94 254.05,981.61 253.50,982.04 C252.34,982.95 223.80,986.06 218.24,985.88 C216.18,985.82 213.60,985.55 212.50,985.28 ZM 339.32 790.07 C344.74,794.38 347.31,794.87 350.98,792.30 C352.31,791.37 360.17,787.17 368.45,782.96 C390.09,771.96 391.97,770.84 402.76,762.61 C416.56,752.08 433.48,734.05 443.67,719.00 C449.03,711.09 454.00,703.18 454.00,702.56 C454.00,702.23 455.20,700.06 456.68,697.73 C459.49,693.29 474.00,664.62 474.00,663.51 C474.00,663.16 475.98,658.73 478.41,653.68 C480.83,648.63 483.52,642.92 484.37,641.00 C486.83,635.47 490.50,629.67 491.80,629.23 C494.18,628.44 492.00,649.30 489.15,654.66 C488.61,655.67 487.39,659.65 486.44,663.50 C485.49,667.35 484.38,670.95 483.96,671.50 C483.55,672.05 482.74,674.08 482.18,676.00 C479.27,685.90 467.94,709.92 459.96,723.13 C454.57,732.04 448.43,740.78 441.70,749.10 C439.06,752.36 437.15,755.44 437.46,755.94 C437.77,756.44 439.40,757.15 441.08,757.52 C442.76,757.89 445.34,758.81 446.81,759.58 C448.28,760.34 451.97,761.50 454.99,762.15 C458.02,762.80 460.96,763.68 461.52,764.10 C462.08,764.52 467.71,765.63 474.02,766.56 C490.94,769.06 531.99,767.46 539.50,764.02 C540.60,763.51 545.33,762.35 550.00,761.44 C554.67,760.53 558.95,759.46 559.50,759.05 C560.05,758.65 563.42,757.52 567.00,756.55 C570.58,755.58 573.95,754.44 574.50,754.02 C575.05,753.60 577.30,752.70 579.50,752.00 C592.08,748.05 631.69,727.60 644.57,718.41 C647.97,715.98 651.09,714.00 651.50,714.00 C652.75,714.00 669.06,699.95 675.88,693.00 C681.85,686.93 690.00,676.82 690.00,675.50 C690.00,675.18 690.47,674.37 691.04,673.71 C693.54,670.83 702.00,659.09 702.00,658.52 C702.00,658.17 703.71,655.33 705.81,652.20 C709.19,647.14 718.00,629.98 718.00,628.46 C718.00,628.13 719.12,625.41 720.50,622.41 C721.88,619.40 723.00,616.46 723.00,615.87 C723.00,615.28 723.64,613.38 724.43,611.65 C725.22,609.92 726.63,604.90 727.56,600.50 C728.50,596.10 729.65,591.74 730.13,590.81 C731.93,587.32 734.00,562.85 734.00,545.01 C734.00,526.91 731.87,501.48 730.02,497.50 C729.51,496.40 728.35,491.67 727.44,487.00 C726.53,482.33 725.45,478.05 725.04,477.50 C724.63,476.95 723.75,474.28 723.08,471.56 C722.42,468.84 721.06,464.79 720.06,462.56 C719.06,460.33 717.93,457.38 717.56,456.00 C716.37,451.61 713.53,446.02 712.64,446.30 C712.16,446.45 711.12,448.58 710.33,451.04 C709.54,453.49 708.25,456.85 707.46,458.50 C706.68,460.15 705.37,463.08 704.57,465.00 C700.48,474.73 690.32,489.50 681.75,498.15 C677.13,502.81 675.60,507.02 678.00,508.50 C678.55,508.84 679.01,513.44 679.01,518.81 L 679.02 528.50 L 682.50 530.75 C684.41,531.99 686.33,533.00 686.77,533.00 C688.11,533.00 698.91,544.38 701.04,548.04 C702.79,551.06 704.22,554.02 708.03,562.50 C711.98,571.30 711.67,594.65 707.50,602.65 C706.68,604.22 706.01,606.18 706.01,607.02 C706.00,607.85 704.88,610.19 703.50,612.21 C702.12,614.24 701.00,616.33 701.00,616.86 C701.00,618.71 690.89,629.91 685.96,633.53 C674.89,641.65 664.80,644.95 650.89,644.98 C638.06,645.01 629.90,642.59 617.00,634.91 C612.20,632.06 602.70,622.60 600.17,618.16 C590.04,600.37 588.50,594.58 589.22,576.99 C589.70,565.22 589.79,564.88 594.39,555.35 C598.15,547.58 600.45,544.32 606.03,538.83 C609.86,535.07 613.55,532.00 614.24,532.00 C614.93,531.99 616.75,530.98 618.28,529.75 C621.05,527.51 621.06,527.48 620.28,519.14 C619.93,515.44 619.93,513.38 619.08,511.78 C617.73,509.27 614.26,507.90 604.00,503.04 C594.91,498.74 580.71,491.16 568.81,484.26 C564.79,481.92 559.47,478.84 557.00,477.41 C551.66,474.32 543.25,468.99 537.00,464.73 C534.53,463.04 529.23,459.46 525.22,456.76 L 517.94 451.86 L 513.04 455.96 C506.55,461.40 485.33,483.52 480.96,489.42 C479.06,491.99 474.01,498.57 469.75,504.04 C465.49,509.52 462.00,514.25 462.00,514.55 C462.00,514.86 458.62,519.35 454.50,524.53 C450.38,529.71 447.00,534.24 447.00,534.60 C447.00,534.95 443.06,539.80 438.25,545.37 C421.68,564.57 399.62,585.25 380.50,599.52 C376.10,602.80 368.90,609.09 364.50,613.49 C357.55,620.45 355.63,623.21 349.89,634.50 C346.25,641.65 342.06,650.65 340.59,654.50 C339.11,658.35 337.50,662.40 337.02,663.50 C336.54,664.60 335.40,667.97 334.50,671.00 C333.60,674.03 332.44,677.40 331.93,678.50 C331.42,679.60 329.92,684.55 328.59,689.50 C323.81,707.28 322.90,710.52 322.29,712.00 C321.95,712.83 321.60,713.72 321.50,714.00 C321.40,714.28 320.92,715.40 320.41,716.50 C319.08,719.42 319.26,753.18 320.62,756.10 C321.23,757.42 322.72,762.06 323.92,766.42 C326.51,775.78 332.03,784.26 339.32,790.07 ZM 891.11 320.21 C892.19,322.22 892.35,322.25 893.54,320.62 C896.97,315.92 898.09,277.47 895.09,267.00 C894.54,265.08 893.16,259.70 892.01,255.06 C890.87,250.42 889.57,246.15 889.14,245.56 C888.70,244.98 887.52,242.25 886.52,239.50 C881.03,224.47 868.63,205.15 855.66,191.42 C847.07,182.32 830.14,167.00 828.67,167.00 C828.35,167.00 824.81,164.53 820.80,161.52 C816.78,158.50 812.94,156.03 812.25,156.02 C811.56,156.01 811.00,155.60 811.00,155.10 C811.00,154.61 809.31,153.33 807.25,152.25 C793.84,145.22 783.39,140.01 782.70,140.01 C782.25,140.00 780.00,139.15 777.70,138.11 C775.39,137.07 770.80,135.68 767.50,135.02 C764.20,134.37 760.72,133.42 759.76,132.91 C758.81,132.41 757.23,132.00 756.26,131.99 C755.29,131.99 753.21,131.31 751.62,130.49 C748.88,129.06 748.36,129.18 740.12,133.18 C735.38,135.48 729.03,139.09 726.00,141.18 C722.97,143.28 720.12,145.00 719.66,145.00 C718.92,145.00 710.33,151.24 701.54,158.17 C694.83,163.46 677.08,182.19 671.25,190.13 C667.81,194.82 665.00,198.91 665.00,199.22 C665.00,199.54 663.25,202.67 661.12,206.18 C658.99,209.69 656.20,215.02 654.93,218.03 C653.66,221.04 652.08,224.40 651.42,225.50 C650.76,226.60 649.66,229.30 648.98,231.50 C648.30,233.70 647.40,235.95 646.99,236.50 C645.60,238.33 644.83,243.96 645.53,247.13 C646.70,252.47 659.07,263.97 668.88,268.85 C678.09,273.43 694.98,279.39 701.96,280.52 C704.42,280.92 707.12,281.62 707.96,282.08 C711.31,283.91 727.14,285.05 762.50,286.00 C782.85,286.55 801.97,287.20 805.00,287.44 C819.67,288.61 839.68,291.66 841.50,293.00 C842.05,293.41 844.97,294.30 848.00,295.00 C862.19,298.24 887.18,312.85 891.11,320.21 ZM 580.50 369.37 C590.05,370.01 618.84,369.10 620.75,368.10 C621.71,367.60 626.95,366.41 632.39,365.46 C637.83,364.51 643.46,363.12 644.89,362.37 C646.33,361.62 648.08,361.01 648.79,361.01 C651.03,361.00 666.26,353.76 672.19,349.89 C675.32,347.84 678.70,345.90 679.69,345.57 C680.69,345.24 682.59,344.13 683.93,343.10 L 686.35 341.23 L 682.87 339.36 C666.98,330.86 644.97,309.01 638.93,295.75 C637.38,292.34 636.23,292.26 635.00,295.49 C633.36,299.80 626.01,306.85 620.14,309.73 C615.03,312.24 613.51,312.50 604.00,312.45 C594.24,312.40 593.03,312.17 586.78,309.14 C573.49,302.70 561.77,286.81 558.86,271.30 C557.84,265.82 558.23,251.54 559.55,245.96 L 560.15 243.42 L 550.03 242.29 C544.46,241.68 539.24,240.62 538.43,239.94 C537.62,239.27 536.67,239.00 536.32,239.35 C535.97,239.70 535.19,239.60 534.59,239.12 C533.99,238.65 531.70,237.69 529.50,237.00 C527.30,236.31 525.01,235.35 524.41,234.88 C523.82,234.41 521.57,233.39 519.41,232.61 C517.26,231.83 510.70,228.90 504.82,226.10 C498.95,223.29 493.54,221.00 492.80,221.00 C492.05,221.00 490.56,220.39 489.47,219.65 C488.39,218.90 484.12,217.53 480.00,216.59 C475.88,215.65 471.80,214.51 470.93,214.05 C470.07,213.59 464.45,212.45 458.43,211.52 C452.42,210.59 446.60,209.44 445.50,208.97 C443.11,207.95 426.10,206.19 413.38,205.65 L 404.26 205.27 L 405.72 210.88 C406.53,213.97 407.53,216.95 407.96,217.50 C408.39,218.05 409.30,220.30 409.98,222.50 C412.19,229.62 421.50,249.04 426.03,256.00 C427.65,258.48 429.27,261.17 429.64,262.00 C430.01,262.83 431.82,265.59 433.66,268.13 C435.50,270.68 437.00,273.11 437.00,273.52 C437.00,273.93 440.49,278.54 444.75,283.76 C449.01,288.98 453.47,294.65 454.66,296.37 C459.03,302.68 489.00,332.00 491.09,332.00 C491.45,332.00 492.37,332.74 493.13,333.65 C499.45,341.27 528.64,357.45 542.50,361.02 C545.25,361.73 547.99,362.69 548.59,363.15 C549.19,363.61 554.37,364.72 560.09,365.63 C565.82,366.53 571.40,367.65 572.50,368.12 C573.60,368.58 577.20,369.15 580.50,369.37 ZM 680.50 919.40 C685.88,920.20 723.42,919.12 726.50,918.07 C728.15,917.51 735.58,916.19 743.00,915.14 C756.59,913.22 770.94,909.96 776.50,907.54 C778.15,906.82 781.30,905.68 783.50,905.01 C790.85,902.76 809.76,893.77 815.91,889.61 C818.43,887.90 821.72,885.83 823.21,885.00 C824.70,884.17 828.87,881.05 832.46,878.06 L 839.00 872.62 L 839.00 865.01 C839.00,860.83 838.51,856.91 837.92,856.32 C837.28,855.68 836.81,850.57 836.77,843.87 C836.71,834.46 837.05,831.72 838.73,828.00 C841.57,821.74 845.87,817.96 850.91,817.28 C853.19,816.98 855.23,816.43 855.46,816.07 C857.02,813.53 840.06,799.73 829.63,795.06 C817.77,789.74 817.35,789.80 805.54,798.70 C788.35,811.63 779.00,817.85 770.50,822.02 C768.30,823.09 765.83,824.40 765.00,824.93 C762.13,826.75 750.93,832.00 749.92,832.00 C749.35,832.00 747.00,832.85 744.70,833.89 C742.39,834.93 737.80,836.35 734.50,837.06 C731.20,837.76 728.04,838.68 727.47,839.11 C725.66,840.46 705.77,842.07 698.50,841.45 C689.05,840.64 676.17,836.63 671.00,832.88 L 666.76 829.81 L 662.37 834.83 C659.01,838.67 656.75,840.23 652.74,841.48 C649.86,842.37 646.75,843.51 645.83,844.01 C642.72,845.70 627.55,847.04 619.15,846.37 L 610.80 845.71 L 612.26 848.60 C613.07,850.20 614.29,853.86 614.97,856.75 C615.65,859.64 616.58,862.24 617.04,862.52 C617.50,862.81 618.63,866.52 619.56,870.77 C620.50,875.02 621.59,878.95 622.00,879.50 C622.41,880.05 623.52,884.10 624.48,888.50 C625.44,892.90 626.58,896.95 627.02,897.50 C627.46,898.05 628.22,900.08 628.72,902.00 C629.37,904.55 630.54,905.96 633.06,907.20 C641.26,911.24 662.62,916.73 680.50,919.40 ZM 249.56 967.57 C249.93,970.01 250.46,972.00 250.75,972.00 C253.33,972.00 260.53,968.93 265.06,965.90 C269.70,962.80 281.00,950.80 281.00,948.97 C281.00,948.67 279.41,945.97 277.47,942.97 C275.52,939.96 272.80,935.03 271.43,932.00 C270.05,928.97 268.51,925.75 268.01,924.84 C267.51,923.93 266.37,919.43 265.48,914.84 C264.59,910.25 263.45,905.38 262.93,904.00 C262.42,902.62 261.08,895.42 259.96,888.00 C258.84,880.58 257.65,873.38 257.33,872.00 C256.21,867.28 255.29,849.50 255.71,840.50 C256.32,827.34 258.40,820.08 265.84,805.13 C271.41,793.96 273.77,790.41 280.22,783.51 C284.47,778.97 289.64,774.47 291.72,773.52 C293.80,772.56 296.74,771.19 298.26,770.46 C299.78,769.74 303.40,768.84 306.31,768.48 L 311.60 767.82 L 310.55 762.66 C309.97,759.82 309.08,756.86 308.59,756.09 C308.09,755.31 307.47,749.11 307.20,742.32 L 306.73 729.96 L 303.11 730.62 C301.13,730.98 298.38,731.74 297.00,732.31 C293.58,733.73 257.13,734.40 248.50,733.21 L 241.50 732.24 L 236.06 736.86 C230.46,741.62 220.68,752.93 217.98,757.77 C217.14,759.27 214.78,763.10 212.73,766.27 C210.68,769.44 209.00,772.23 209.00,772.46 C209.00,772.69 207.25,776.62 205.12,781.19 C202.98,785.76 200.90,790.62 200.50,792.00 C200.09,793.38 199.42,794.95 199.01,795.50 C198.61,796.05 197.48,799.88 196.50,804.00 C195.52,808.12 194.34,811.99 193.87,812.60 C193.40,813.20 192.30,819.95 191.42,827.60 C190.55,835.24 189.42,842.88 188.92,844.57 C187.66,848.79 187.73,879.71 189.00,880.50 C189.55,880.84 190.00,883.08 190.00,885.47 C190.00,891.39 193.01,914.26 193.95,915.50 C194.37,916.05 195.25,918.72 195.92,921.43 C196.58,924.15 197.88,926.95 198.81,927.67 C203.77,931.49 216.96,940.01 220.00,941.35 C225.58,943.83 234.14,948.90 238.77,952.48 C245.14,957.40 248.81,962.53 249.56,967.57 ZM 400.01 189.18 C400.00,190.69 401.16,190.80 411.25,190.31 C417.44,190.01 425.65,189.13 429.50,188.35 C433.35,187.57 437.17,186.89 438.00,186.83 C438.83,186.77 439.95,186.38 440.50,185.95 C441.05,185.53 444.42,184.42 448.00,183.50 C451.58,182.58 454.95,181.47 455.50,181.03 C456.05,180.60 457.62,179.92 459.00,179.51 C463.07,178.33 470.75,174.87 482.77,168.81 C495.38,162.45 499.72,159.87 510.62,152.25 C514.74,149.36 518.37,147.00 518.67,147.00 C518.97,147.00 523.08,143.96 527.81,140.25 C532.54,136.54 536.97,133.27 537.66,133.00 C538.35,132.73 544.31,127.89 550.90,122.25 C557.49,116.61 563.25,112.00 563.69,111.99 C566.47,111.97 610.57,68.24 620.17,56.00 C621.24,54.62 624.64,50.35 627.72,46.50 C635.76,36.44 639.00,31.86 638.97,30.60 C638.94,29.20 633.20,26.60 625.50,24.51 C622.20,23.61 618.60,22.46 617.50,21.95 C614.95,20.77 598.78,18.00 594.43,18.00 C592.61,18.00 590.84,17.55 590.50,17.00 C590.15,16.43 584.97,16.00 578.38,16.00 L 566.89 16.00 L 564.91 20.48 C562.39,26.16 556.44,35.32 542.15,55.50 C540.59,57.70 535.31,63.95 530.41,69.38 C525.51,74.82 520.10,81.12 518.39,83.38 C513.56,89.76 497.59,104.29 481.35,117.08 C472.12,124.35 461.51,132.00 460.66,132.00 C460.35,132.00 457.98,133.43 455.38,135.18 C451.09,138.08 419.27,156.00 418.42,156.00 C418.22,156.00 415.60,157.12 412.59,158.50 C409.59,159.88 406.74,161.00 406.26,161.00 C404.83,161.00 403.09,167.06 401.51,177.56 C400.69,183.03 400.01,188.26 400.01,189.18 ZM 737.03 272.99 C732.59,275.36 706.31,273.34 699.50,270.09 C698.40,269.57 695.74,268.60 693.59,267.94 C685.30,265.39 677.60,260.65 670.15,253.51 L 662.50 246.17 L 662.52 237.21 C662.53,232.06 663.02,227.67 663.67,226.88 C664.30,226.12 665.32,223.48 665.96,221.00 C667.56,214.76 673.62,202.52 678.18,196.29 C680.28,193.43 682.00,190.78 682.00,190.40 C682.00,187.04 721.02,148.00 724.38,148.00 C724.74,148.00 727.69,146.18 730.95,143.96 C737.97,139.16 747.75,135.00 752.00,135.00 C754.33,135.00 755.27,135.59 756.00,137.50 C756.52,138.88 757.90,142.09 759.06,144.64 C760.22,147.18 761.62,152.02 762.16,155.38 C762.71,158.75 763.60,163.07 764.15,165.00 C764.70,166.93 764.94,173.00 764.69,178.50 C764.17,189.92 760.48,216.71 759.10,219.09 C758.59,219.97 757.46,224.54 756.57,229.26 C755.69,233.98 754.30,239.11 753.49,240.67 C752.68,242.23 752.01,244.06 752.01,244.74 C751.99,247.10 744.73,263.52 741.84,267.74 C740.23,270.06 738.07,272.43 737.03,272.99 ZM 640.50 634.06 C644.42,635.18 660.98,634.60 663.52,633.25 C664.61,632.67 668.65,630.72 672.50,628.91 C684.32,623.37 693.64,612.73 699.19,598.44 C701.10,593.52 701.50,590.61 701.50,581.50 C701.50,571.85 701.16,569.64 698.74,563.50 C693.80,550.97 682.99,540.40 669.50,534.93 C664.24,532.80 661.94,532.50 650.90,532.50 C643.24,532.50 637.36,532.96 635.90,533.68 C634.58,534.33 630.36,536.31 626.53,538.08 C618.05,542.01 606.89,552.84 602.75,561.16 C595.31,576.12 596.96,596.83 606.61,609.68 C607.92,611.43 609.00,613.25 609.00,613.72 C609.00,615.15 618.21,623.59 623.00,626.56 C627.40,629.28 634.48,632.32 640.50,634.06 ZM 737.80 345.47 C738.64,346.31 759.80,345.96 767.50,344.99 C789.74,342.15 797.02,340.73 795.94,339.43 C794.42,337.60 795.82,335.33 804.06,326.29 C807.88,322.11 811.00,318.19 811.00,317.59 C811.01,316.06 817.65,309.00 819.08,309.00 C821.05,309.00 819.30,317.81 816.32,322.92 C812.12,330.13 808.26,334.49 803.90,336.94 C799.77,339.26 799.20,341.24 803.25,339.21 C804.49,338.59 809.55,337.36 814.49,336.47 C819.44,335.57 823.94,334.50 824.49,334.07 C825.05,333.64 829.50,332.52 834.39,331.57 C839.28,330.62 844.00,329.44 844.89,328.95 C846.33,328.14 855.85,325.84 870.75,322.68 C873.64,322.07 876.00,321.24 876.00,320.84 C876.00,319.59 855.83,310.41 849.00,308.55 C845.42,307.58 842.05,306.43 841.50,306.00 C837.96,303.21 815.54,301.98 761.50,301.64 C731.40,301.44 726.09,301.16 715.23,299.21 C708.49,297.99 702.19,296.56 701.23,296.03 C700.28,295.50 696.63,294.37 693.13,293.52 C689.63,292.67 685.13,291.27 683.13,290.41 C674.45,286.66 662.12,280.47 657.50,277.55 C654.75,275.81 651.87,274.01 651.10,273.54 C649.94,272.84 649.82,273.59 650.40,277.94 C650.78,280.82 651.51,283.92 652.01,284.84 C652.52,285.75 653.61,288.60 654.43,291.17 C655.25,293.74 657.59,298.46 659.64,301.67 C663.33,307.47 674.60,320.00 676.11,320.00 C676.55,320.00 679.81,322.17 683.35,324.82 C686.90,327.47 693.33,331.36 697.65,333.47 L 708.00 338.52 C709.38,339.20 712.97,340.34 716.00,341.06 C719.03,341.78 722.01,342.75 722.63,343.21 C723.26,343.68 726.81,344.25 730.52,344.50 C734.24,344.74 737.51,345.18 737.80,345.47 ZM 716.00 263.00 C719.99,265.58 731.74,262.82 733.62,258.86 C738.75,248.10 743.41,235.18 745.04,227.26 C745.69,224.09 746.59,221.03 747.06,220.46 C749.15,217.87 751.25,188.41 750.69,169.50 C750.39,159.05 749.83,149.50 749.46,148.28 L 748.78 146.05 L 744.46 149.03 C742.08,150.66 739.84,152.00 739.47,152.00 C739.11,152.00 735.02,154.93 730.39,158.50 C725.76,162.07 721.54,165.00 721.01,165.00 C720.48,165.00 713.38,171.64 705.23,179.75 C689.38,195.53 680.67,207.08 675.16,219.63 C671.59,227.78 669.66,235.52 670.44,238.63 C671.16,241.49 683.04,252.34 687.79,254.48 C689.83,255.40 692.85,256.80 694.50,257.59 C698.23,259.37 708.56,261.99 711.96,262.02 C713.36,262.02 715.17,262.47 716.00,263.00 ZM 624.50 831.35 C636.99,832.63 645.95,830.41 652.65,824.39 C654.84,822.41 655.00,821.54 655.01,811.39 C655.01,805.40 654.56,796.00 654.01,790.50 C653.46,785.00 652.56,774.65 652.00,767.50 C650.72,751.09 649.03,740.00 647.81,740.00 C647.29,740.00 644.90,741.35 642.50,743.00 C640.10,744.65 637.77,746.00 637.32,746.00 C636.86,746.00 634.34,747.53 631.71,749.40 C623.46,755.27 587.47,772.24 577.00,775.20 C575.08,775.74 572.15,776.79 570.50,777.52 C568.85,778.25 564.91,779.57 561.75,780.45 C558.59,781.33 556.00,782.28 556.00,782.56 C556.00,784.28 559.76,791.48 563.71,797.31 C570.02,806.63 579.17,814.71 588.65,819.32 C592.97,821.42 597.71,823.75 599.19,824.49 C600.67,825.23 605.17,826.59 609.19,827.51 C613.21,828.43 617.40,829.58 618.50,830.06 C619.60,830.55 622.30,831.13 624.50,831.35 ZM 642.47 480.64 C643.56,481.39 644.95,482.00 645.56,482.00 C647.14,482.00 658.48,464.33 664.49,452.50 C673.16,435.43 681.79,411.17 679.67,409.82 C679.08,409.44 676.32,408.83 673.55,408.45 C670.77,408.08 667.87,407.26 667.10,406.64 C665.15,405.06 625.20,405.07 621.90,406.65 C620.58,407.27 614.78,408.56 609.00,409.50 C603.22,410.45 598.05,411.50 597.50,411.85 C596.95,412.19 593.35,413.44 589.50,414.62 C575.87,418.80 558.78,425.93 557.53,427.95 C557.05,428.74 567.86,437.00 569.38,437.00 C569.65,437.00 572.71,438.93 576.19,441.29 C579.66,443.64 587.00,448.21 592.50,451.44 C598.00,454.67 603.17,457.86 604.00,458.53 C605.62,459.84 612.84,464.00 619.86,467.66 C622.26,468.92 624.74,470.34 625.36,470.83 C625.99,471.31 629.65,473.41 633.50,475.49 C637.35,477.57 641.39,479.89 642.47,480.64 ZM 630.37 230.91 C632.07,232.61 633.75,234.00 634.10,234.00 C634.45,234.00 635.32,231.86 636.03,229.25 C636.73,226.64 637.62,224.05 637.99,223.50 C638.36,222.95 639.25,220.93 639.97,219.00 C646.03,202.79 659.96,179.57 670.31,168.41 L 676.89 161.32 L 677.58 153.41 C677.95,149.06 678.70,144.95 679.22,144.29 C680.77,142.34 679.10,128.14 675.89,116.00 C674.38,110.27 668.33,102.25 661.68,97.18 C656.19,92.99 648.94,89.00 646.79,88.99 C646.08,88.99 644.15,88.27 642.50,87.39 C639.08,85.56 621.91,85.05 619.77,86.71 C619.07,87.25 616.41,88.25 613.86,88.94 C610.32,89.90 607.16,92.11 600.48,98.30 L 591.74 106.40 L 594.62 107.50 C606.25,111.94 616.89,119.54 620.00,125.64 C620.81,127.21 623.08,130.75 625.05,133.50 C629.09,139.13 634.52,149.97 635.58,154.50 C635.96,156.15 636.61,157.95 637.02,158.50 C639.01,161.16 640.48,175.82 640.47,193.00 C640.47,214.37 640.06,215.86 632.21,223.21 L 627.28 227.82 ZM 604.37 489.05 C624.81,499.49 627.68,500.68 631.37,500.30 C633.64,500.07 639.10,499.55 643.50,499.15 L 651.50 498.43 L 647.00 496.26 C641.06,493.38 626.77,485.58 615.18,478.88 C610.06,475.92 604.66,472.87 603.18,472.09 C601.71,471.32 597.94,468.96 594.80,466.84 C591.67,464.73 588.83,463.00 588.49,463.00 C588.14,463.00 585.90,461.65 583.50,460.00 C581.10,458.35 578.84,457.00 578.48,457.00 C578.12,457.00 575.95,455.70 573.66,454.11 C571.37,452.53 562.24,446.46 553.38,440.62 C544.51,434.79 536.69,429.33 536.00,428.51 C535.32,427.68 534.30,427.00 533.74,427.00 C532.63,427.00 517.62,415.98 501.40,403.25 C495.61,398.71 490.66,395.00 490.38,395.00 C490.10,395.00 486.24,391.85 481.79,388.00 C474.29,381.50 470.57,379.74 468.60,381.75 C468.19,382.16 466.02,382.96 463.76,383.53 L 459.67 384.55 L 466.72 392.53 C478.59,405.96 501.61,425.58 523.36,440.80 C536.97,450.32 564.51,468.00 565.73,468.00 C566.07,468.00 567.05,468.61 567.92,469.36 C570.25,471.37 578.87,476.02 604.37,489.05 ZM 594.15 292.40 C603.27,296.79 615.04,295.41 620.03,289.36 C626.79,281.17 629.84,265.17 626.88,253.42 C625.95,249.76 624.47,247.82 618.63,242.63 C610.88,235.76 605.21,233.44 600.22,235.10 C598.72,235.60 595.65,236.46 593.38,237.01 C587.40,238.46 578.37,247.33 577.52,252.59 C577.17,254.74 576.47,257.28 575.95,258.24 C574.70,260.52 574.73,265.72 576.00,266.50 C576.55,266.84 577.00,267.91 577.00,268.88 C577.00,277.42 584.56,287.79 594.15,292.40 ZM 726.14 333.98 C724.03,336.19 721.90,337.92 721.40,337.83 C720.91,337.74 718.71,337.48 716.51,337.26 C714.32,337.03 712.07,336.49 711.51,336.04 C710.96,335.60 708.99,334.91 707.15,334.51 C702.60,333.54 690.34,327.17 682.80,321.86 C676.16,317.18 662.00,304.22 662.00,302.81 C662.00,302.34 660.86,300.24 659.47,298.14 C657.98,295.88 656.69,292.14 656.31,289.00 L 655.68 283.69 L 659.59 284.32 C661.74,284.66 669.12,287.51 676.00,290.63 C695.37,299.44 696.31,299.84 699.50,300.58 C701.15,300.96 702.95,301.62 703.50,302.05 C705.18,303.34 716.01,305.00 722.78,305.00 C728.67,305.00 729.44,305.26 732.10,308.11 C736.27,312.57 736.35,316.45 732.46,324.68 C731.09,327.58 728.24,331.77 726.14,333.98 ZM 514.34 212.04 C518.79,214.13 522.72,215.67 523.08,215.45 C523.43,215.24 523.95,211.21 524.25,206.51 C524.54,201.81 525.27,197.38 525.86,196.67 C526.85,195.47 529.94,184.34 532.01,174.46 C533.27,168.48 534.39,153.00 533.56,153.00 C533.17,153.00 530.29,154.95 527.17,157.34 C520.83,162.18 513.59,166.89 501.00,174.35 C488.13,181.98 474.14,188.82 465.98,191.47 C460.35,193.29 458.22,194.56 459.18,195.51 C459.47,195.81 463.94,196.72 469.11,197.54 C474.27,198.35 479.40,199.43 480.50,199.92 C481.60,200.42 485.64,201.57 489.48,202.48 C493.32,203.39 496.92,204.50 497.48,204.94 C498.04,205.38 500.24,206.30 502.37,206.99 C504.50,207.67 509.88,209.95 514.34,212.04 ZM 666.00 492.51 C669.58,494.42 672.72,495.97 673.00,495.95 C673.53,495.91 679.95,486.16 683.83,479.50 C685.11,477.30 687.16,473.92 688.39,472.00 C691.33,467.38 696.43,456.51 698.00,451.50 C698.69,449.30 699.61,447.05 700.04,446.50 C701.29,444.90 704.00,430.51 704.00,425.48 C704.00,418.88 702.16,412.41 698.24,405.25 C694.74,398.86 692.00,397.13 692.00,401.32 C692.00,404.91 688.88,422.38 688.04,423.50 C687.63,424.05 686.74,426.75 686.07,429.50 C685.40,432.25 684.15,436.08 683.30,438.00 C678.56,448.69 673.40,458.88 671.34,461.59 C670.05,463.30 669.00,465.10 669.00,465.59 C668.99,467.14 655.06,481.85 652.97,482.51 C650.05,483.44 650.53,484.36 655.25,486.81 C657.59,488.03 662.42,490.59 666.00,492.51 ZM 692.00 941.01 C707.39,942.21 734.04,940.53 739.50,938.02 C740.60,937.51 745.33,936.35 750.00,935.44 C754.67,934.53 758.95,933.45 759.50,933.04 C760.05,932.63 762.75,931.74 765.50,931.07 C768.25,930.40 771.85,929.24 773.50,928.49 C775.15,927.75 778.63,926.44 781.24,925.58 C783.84,924.73 786.77,923.61 787.74,923.09 C788.71,922.58 793.94,919.98 799.38,917.33 C812.45,910.94 813.07,910.57 824.05,902.83 C832.87,896.60 843.49,887.00 841.56,887.00 C841.09,887.00 838.78,888.58 836.43,890.50 C834.09,892.42 831.93,894.00 831.64,894.00 C831.36,894.00 828.29,895.92 824.81,898.27 C817.63,903.13 791.96,916.00 788.50,916.47 C787.95,916.55 786.23,917.15 784.68,917.80 C783.14,918.46 781.42,919.00 780.88,919.00 C780.34,919.00 778.00,919.86 775.70,920.91 C773.39,921.95 768.58,923.37 765.00,924.05 C761.42,924.73 757.79,925.65 756.92,926.08 C754.33,927.40 732.60,929.96 714.94,931.03 C694.42,932.27 662.41,930.25 655.00,927.25 C654.17,926.91 652.83,926.53 652.00,926.40 C651.17,926.27 647.89,925.45 644.70,924.58 C636.90,922.45 636.25,922.57 639.06,925.57 C642.59,929.33 654.49,934.62 663.58,936.49 C667.93,937.38 673.75,938.58 676.50,939.15 C679.25,939.72 686.22,940.56 692.00,941.01 ZM 659.00 612.52 C642.90,614.64 634.46,614.46 631.94,611.94 C629.25,609.25 629.77,605.78 633.00,604.89 C634.38,604.51 638.31,604.15 641.75,604.10 L 648.00 604.00 L 648.00 586.00 C648.00,576.10 647.72,568.00 647.38,568.00 C647.04,568.00 644.13,570.44 640.91,573.42 C633.95,579.86 631.60,580.85 628.93,578.44 C626.45,576.19 626.48,572.94 629.00,569.73 C630.10,568.33 631.00,566.86 631.00,566.46 C631.00,565.12 642.10,552.53 645.29,550.25 C651.41,545.88 657.99,548.19 659.39,555.19 C659.72,556.87 660.00,568.07 660.00,580.07 C660.00,601.68 660.43,604.55 663.32,602.15 C664.00,601.58 668.03,600.81 672.28,600.42 L 680.00 599.72 L 680.00 603.69 C680.00,609.30 678.44,609.95 659.00,612.52 ZM 292.12 820.64 C292.87,821.55 294.61,821.32 299.46,819.67 C304.10,818.09 308.30,815.47 315.00,810.00 L 324.17 802.50 L 323.76 797.29 C323.26,791.06 318.79,783.16 314.61,781.15 C310.65,779.24 302.01,780.47 297.80,783.54 C295.99,784.86 293.57,786.37 292.44,786.88 C289.20,788.34 284.00,794.83 284.00,797.42 C284.00,800.01 290.55,818.75 292.12,820.64 ZM 198.27 965.45 C205.36,972.86 207.83,974.13 202.75,967.75 C199.35,963.49 190.00,948.74 190.00,947.64 C190.00,947.32 188.92,944.68 187.60,941.78 C186.27,938.88 184.65,934.47 184.00,932.00 C183.34,929.53 182.45,927.05 182.01,926.50 C181.57,925.95 180.46,920.78 179.55,915.00 C178.63,909.22 177.44,903.09 176.92,901.36 C175.45,896.60 174.35,863.23 175.16,848.00 C175.55,840.58 175.89,833.21 175.91,831.64 C175.93,830.06 176.38,827.36 176.91,825.64 C177.44,823.91 178.63,817.78 179.55,812.00 C180.46,806.22 181.56,801.05 181.98,800.50 C182.40,799.95 183.30,797.03 183.99,794.00 C184.68,790.97 185.83,787.15 186.55,785.50 C187.27,783.85 188.55,780.47 189.38,778.00 C191.88,770.62 200.88,752.93 205.42,746.50 C211.31,738.15 211.80,737.04 208.07,740.50 C204.47,743.83 194.00,757.37 194.00,758.69 C194.00,759.16 192.94,761.10 191.64,763.02 C188.97,766.95 184.59,777.02 182.29,784.50 C181.44,787.25 180.42,789.95 180.01,790.50 C179.61,791.05 178.51,794.88 177.58,799.00 C176.64,803.12 175.45,807.29 174.93,808.26 C174.40,809.23 173.25,816.21 172.37,823.76 C171.50,831.32 170.35,838.32 169.84,839.32 C168.61,841.70 168.57,887.77 169.80,889.32 C170.31,889.97 171.04,893.88 171.41,898.00 C173.01,915.74 181.10,940.95 188.88,952.48 C190.60,955.02 192.00,957.50 192.00,958.00 C192.00,958.49 194.82,961.84 198.27,965.45 ZM 782.28 273.23 C780.25,275.30 778.24,277.00 777.80,277.00 C775.48,277.00 778.83,260.34 781.90,256.61 C782.74,255.59 784.74,249.08 787.07,239.77 C787.58,237.71 788.46,228.49 789.02,219.27 C789.94,204.24 789.62,190.21 787.70,160.78 L 787.45 157.06 L 790.12 159.62 C791.59,161.02 793.36,164.27 794.05,166.84 C794.74,169.40 795.64,171.95 796.04,172.50 C797.84,174.96 799.39,189.83 799.38,204.50 C799.36,219.79 797.56,240.38 796.04,242.50 C795.65,243.05 794.76,246.20 794.06,249.50 C792.38,257.42 786.87,268.53 782.28,273.23 ZM 833.36 278.13 C832.34,279.03 830.49,280.07 829.25,280.45 C827.21,281.07 827.00,280.80 827.00,277.63 C827.00,275.70 827.37,273.89 827.83,273.61 C828.28,273.33 829.49,270.26 830.50,266.80 C831.52,263.33 832.73,260.00 833.19,259.38 C834.67,257.40 835.95,239.03 835.97,219.32 C835.99,207.88 836.44,198.99 837.09,197.32 L 838.19 194.50 L 840.57 199.39 C844.05,206.53 845.52,225.52 844.05,244.27 C843.44,252.02 842.56,258.85 842.09,259.43 C841.62,260.02 840.90,262.08 840.49,264.00 C839.54,268.51 835.74,276.04 833.36,278.13 ZM 628.21 518.56 L 627.91 524.61 L 636.71 523.15 C643.84,521.95 647.58,521.88 656.50,522.77 C662.55,523.37 668.29,524.16 669.25,524.54 C670.82,525.14 671.00,524.47 671.00,518.11 L 671.00 511.00 L 652.75 511.12 C642.71,511.18 633.15,511.52 631.50,511.87 C628.61,512.49 628.49,512.74 628.21,518.56 ZM 689.55 828.16 C692.75,828.79 705.07,815.54 703.56,813.10 C703.27,812.62 700.55,811.92 697.53,811.55 C694.51,811.17 691.77,810.44 691.46,809.93 C690.77,808.82 686.64,808.69 685.59,809.74 C685.18,810.15 682.97,810.94 680.67,811.49 C677.12,812.35 676.45,812.92 676.17,815.35 C675.95,817.28 676.60,819.03 678.17,820.72 C681.00,823.78 686.90,827.64 689.55,828.16 ZM 580.00 210.04 C584.88,212.65 591.41,212.53 595.88,209.75 L 599.50 207.50 L 593.50 206.92 C586.27,206.23 579.47,202.72 572.65,196.16 C564.29,188.13 556.35,176.28 553.95,168.25 C553.25,165.91 552.30,164.00 551.83,164.00 C550.69,164.00 551.98,171.73 553.65,174.94 C554.39,176.35 554.99,177.91 554.99,178.40 C555.01,180.26 560.54,190.69 564.13,195.61 C568.34,201.39 574.81,207.27 580.00,210.04 ZM 715.50 325.32 C716.60,325.56 717.79,325.82 718.15,325.88 C718.91,326.02 722.50,320.14 723.42,317.26 C724.01,315.40 723.46,315.24 714.77,314.76 C705.09,314.21 691.87,310.32 680.25,304.59 C673.64,301.33 672.67,301.31 677.03,304.52 C678.91,305.91 680.82,307.71 681.27,308.52 C681.73,309.33 682.60,310.00 683.21,310.00 C683.81,310.00 685.70,311.05 687.41,312.33 C690.98,315.02 704.47,322.00 706.10,322.00 C706.70,322.00 708.62,322.64 710.35,323.43 C712.08,324.22 714.40,325.07 715.50,325.32 ZM 755.00 333.20 C748.71,339.73 746.97,341.00 744.31,341.00 C740.41,341.00 739.27,339.47 741.40,337.11 C742.28,336.14 743.00,334.91 743.00,334.38 C743.00,333.86 745.28,331.19 748.07,328.46 C753.42,323.23 764.00,309.79 764.00,308.23 C764.00,307.14 767.31,304.00 768.46,304.00 C768.90,304.00 769.05,306.17 768.79,308.83 C768.08,316.19 763.40,324.47 755.00,333.20 ZM 231.47 971.59 C234.79,973.33 238.03,974.80 238.68,974.87 C242.00,975.23 240.45,966.27 236.64,963.12 C234.70,961.50 227.59,957.43 224.00,955.87 C222.62,955.28 219.93,954.08 218.00,953.21 C213.16,951.02 207.63,949.03 207.30,949.37 C207.15,949.52 209.41,952.53 212.33,956.07 C218.44,963.47 222.98,967.15 231.47,971.59 ZM 586.18 148.64 C589.40,150.43 590.41,150.31 592.57,147.93 C593.90,146.45 594.55,143.90 594.83,139.06 C595.19,132.66 595.05,132.13 592.36,129.63 C588.21,125.79 586.22,125.44 583.40,128.10 C580.10,131.19 578.50,136.73 579.97,140.00 C582.22,145.03 583.91,147.38 586.18,148.64 ZM 284.62 853.54 C286.23,856.01 288.42,856.74 289.41,855.15 C289.70,854.68 290.42,851.14 291.02,847.30 C292.02,840.87 291.94,840.01 290.00,836.73 C288.01,833.35 287.74,833.22 284.70,834.20 C282.94,834.77 279.55,835.52 277.17,835.87 L 272.83 836.50 L 277.92 843.21 C280.71,846.89 283.00,850.17 283.00,850.49 C283.00,850.81 283.73,852.18 284.62,853.54 ZM 265.04 852.18 L 265.00 866.86 L 267.85 866.04 C269.42,865.59 272.84,864.28 275.44,863.13 L 280.18 861.03 L 277.91 857.27 C276.66,855.19 274.37,851.62 272.82,849.32 C271.27,847.02 270.00,844.77 270.00,844.32 C269.99,843.87 268.88,842.15 267.53,840.50 L 265.07 837.50 ZM 267.41 825.50 C266.86,827.97 266.98,828.28 268.07,827.25 C268.80,826.56 270.82,826.00 272.56,826.00 C274.30,826.00 277.76,825.72 280.26,825.38 L 284.80 824.76 L 283.51 821.63 C282.81,819.91 281.65,815.12 280.95,811.00 C280.25,806.88 279.52,803.31 279.33,803.07 C278.32,801.84 268.59,820.15 267.41,825.50 ZM 279.22 883.72 C286.97,891.57 288.00,890.92 288.00,878.07 C288.00,871.88 287.64,869.98 286.21,868.69 C284.30,866.96 282.37,867.53 276.79,871.43 C275.56,872.29 273.69,873.00 272.62,873.00 C270.81,873.00 270.80,873.12 272.35,874.83 C273.26,875.83 274.00,877.06 274.00,877.55 C274.00,878.04 276.35,880.81 279.22,883.72 ZM 849.63 848.17 C850.37,856.93 851.32,857.20 854.86,849.67 C864.00,830.28 864.17,824.81 855.52,828.43 C850.08,830.70 848.59,835.68 849.63,848.17 ZM 276.11 910.81 L 287.50 921.50 L 288.13 912.00 C288.47,906.78 288.47,901.98 288.13,901.34 C287.73,900.62 285.38,902.16 281.80,905.50 L 276.11 910.81 ZM 270.50 900.75 C271.25,902.89 273.48,902.13 276.96,898.54 L 280.31 895.09 L 276.70 891.09 C274.72,888.89 271.89,885.27 270.41,883.05 C268.94,880.82 267.64,879.00 267.52,879.00 C267.21,879.00 269.99,899.29 270.50,900.75 ZM 701.75 830.34 C704.80,830.87 718.12,830.21 718.84,829.49 C719.29,829.04 711.97,820.27 711.00,820.10 C710.72,820.06 707.91,822.23 704.75,824.94 C699.05,829.82 699.02,829.87 701.75,830.34 ZM 754.44 816.90 C755.31,818.30 765.98,812.62 765.99,810.75 C765.99,809.79 766.45,809.00 767.00,809.00 C769.11,809.00 767.78,807.43 764.28,805.78 C759.81,803.69 758.63,804.46 757.11,810.47 C756.50,812.90 755.54,815.16 754.98,815.51 C754.42,815.86 754.18,816.48 754.44,816.90 ZM 744.01 811.51 C746.68,813.48 747.57,813.73 748.16,812.67 C749.19,810.85 750.99,802.65 750.48,802.15 C749.69,801.36 739.14,806.19 738.61,807.59 C738.31,808.36 738.64,809.00 739.34,809.00 C740.04,809.00 742.14,810.13 744.01,811.51 ZM 729.00 827.50 C729.00,827.65 728.99,827.77 729.04,827.84 C729.23,828.09 730.27,827.71 735.85,825.74 C739.35,824.51 742.20,823.05 742.19,822.50 C742.18,821.95 740.83,820.47 739.20,819.21 L 736.24 816.93 L 732.62 821.97 C730.63,824.74 729.00,827.23 729.00,827.50 ZM 719.97 816.47 C724.83,821.42 725.41,821.25 727.84,814.11 L 728.99 810.73 L 724.36 811.36 C721.81,811.71 718.79,812.00 717.65,812.00 C715.91,812.00 716.27,812.70 719.97,816.47 ZM 277.65 926.75 C279.11,930.19 280.63,933.00 281.04,933.00 C281.44,933.00 282.38,931.99 283.13,930.75 C284.40,928.66 284.17,928.17 279.75,923.73 C277.14,921.11 275.00,919.31 275.00,919.73 C275.00,920.16 276.19,923.31 277.65,926.75 ZM 778.35 801.00 C777.76,803.20 777.56,805.00 777.91,805.00 C779.08,805.00 786.00,799.93 786.00,799.07 C786.00,798.05 783.52,797.00 781.12,797.00 C779.97,797.00 779.06,798.31 778.35,801.00 ZM 791.61 792.36 C793.56,793.41 794.42,793.90 795.23,793.82 C795.93,793.76 796.59,793.27 797.88,792.37 C799.70,791.10 799.91,790.56 798.85,789.89 C797.09,788.77 791.89,788.79 790.11,789.91 C789.03,790.59 789.37,791.14 791.61,792.36 ZM 765.00 798.54 C769.85,800.35 770.00,800.32 770.00,797.50 C770.00,794.72 768.66,794.39 764.32,796.12 L 761.50 797.23 ZM 283.23 937.81 C282.63,939.61 284.70,939.23 285.39,937.42 C285.77,936.44 285.54,935.99 284.81,936.23 C284.16,936.45 283.45,937.16 283.23,937.81 Z" fill="rgba(6,6,6,1)"/>
<path d="M 716.00 263.00 C715.17,262.47 713.36,262.02 711.96,262.02 C708.56,261.99 698.23,259.37 694.50,257.59 C692.85,256.80 689.83,255.40 687.79,254.48 C683.04,252.34 671.16,241.49 670.44,238.63 C669.66,235.52 671.59,227.78 675.16,219.63 C680.67,207.08 689.38,195.53 705.23,179.75 C713.38,171.64 720.48,165.00 721.01,165.00 C721.54,165.00 725.76,162.07 730.39,158.50 C735.02,154.93 739.11,152.00 739.47,152.00 C739.84,152.00 742.08,150.66 744.46,149.03 L 748.78 146.05 L 749.46 148.28 C749.83,149.50 750.39,159.05 750.69,169.50 C751.25,188.41 749.15,217.87 747.06,220.46 C746.59,221.03 745.69,224.09 745.04,227.26 C743.41,235.18 738.75,248.10 733.62,258.86 C731.74,262.82 719.99,265.58 716.00,263.00 ZM 292.12 820.64 C290.55,818.75 284.00,800.01 284.00,797.42 C284.00,794.83 289.20,788.34 292.44,786.88 C293.57,786.37 295.99,784.86 297.80,783.54 C302.01,780.47 310.65,779.24 314.61,781.15 C318.79,783.16 323.26,791.06 323.76,797.29 L 324.17 802.50 L 315.00 810.00 C308.30,815.47 304.10,818.09 299.46,819.67 C294.61,821.32 292.87,821.55 292.12,820.64 ZM 689.55 828.16 C686.90,827.64 681.00,823.78 678.17,820.72 C676.60,819.03 675.95,817.28 676.17,815.35 C676.45,812.92 677.12,812.35 680.67,811.49 C682.97,810.94 685.18,810.15 685.59,809.74 C686.64,808.69 690.77,808.82 691.46,809.93 C691.77,810.44 694.51,811.17 697.53,811.55 C700.55,811.92 703.27,812.62 703.56,813.10 C705.07,815.54 692.75,828.79 689.55,828.16 ZM 715.50 325.32 C714.40,325.07 712.08,324.22 710.35,323.43 C708.62,322.64 706.70,322.00 706.10,322.00 C704.47,322.00 690.98,315.02 687.41,312.33 C685.70,311.05 683.81,310.00 683.21,310.00 C682.60,310.00 681.73,309.33 681.27,308.52 C680.82,307.71 678.91,305.91 677.03,304.52 C672.67,301.31 673.64,301.33 680.25,304.59 C691.87,310.32 705.09,314.21 714.77,314.76 C723.46,315.24 724.01,315.40 723.42,317.26 C722.50,320.14 718.91,326.02 718.15,325.88 C717.79,325.82 716.60,325.56 715.50,325.32 ZM 284.62 853.54 C283.73,852.18 283.00,850.81 283.00,850.49 C283.00,850.17 280.71,846.89 277.92,843.21 L 272.83 836.50 L 277.17 835.87 C279.55,835.52 282.94,834.77 284.70,834.20 C287.74,833.22 288.01,833.35 290.00,836.73 C291.94,840.01 292.02,840.87 291.02,847.30 C290.42,851.14 289.70,854.68 289.41,855.15 C288.42,856.74 286.23,856.01 284.62,853.54 ZM 265.04 852.18 L 265.07 837.50 L 267.53 840.50 C268.88,842.15 269.99,843.87 270.00,844.32 C270.00,844.77 271.27,847.02 272.82,849.32 C274.37,851.62 276.66,855.19 277.91,857.27 L 280.18 861.03 L 275.44 863.13 C272.84,864.28 269.42,865.59 267.85,866.04 L 265.00 866.86 ZM 267.41 825.50 C268.59,820.15 278.32,801.84 279.33,803.07 C279.52,803.31 280.25,806.88 280.95,811.00 C281.65,815.12 282.81,819.91 283.51,821.63 L 284.80 824.76 L 280.26 825.38 C277.76,825.72 274.30,826.00 272.56,826.00 C270.82,826.00 268.80,826.56 268.07,827.25 C266.98,828.28 266.86,827.97 267.41,825.50 ZM 279.22 883.72 C276.35,880.81 274.00,878.04 274.00,877.55 C274.00,877.06 273.26,875.83 272.35,874.83 C270.80,873.12 270.81,873.00 272.62,873.00 C273.69,873.00 275.56,872.29 276.79,871.43 C282.37,867.53 284.30,866.96 286.21,868.69 C287.64,869.98 288.00,871.88 288.00,878.07 C288.00,890.92 286.97,891.57 279.22,883.72 ZM 276.11 910.81 L 281.80 905.50 C285.38,902.16 287.73,900.62 288.13,901.34 C288.47,901.98 288.47,906.78 288.13,912.00 L 287.50 921.50 L 276.11 910.81 ZM 270.50 900.75 C269.99,899.29 267.21,879.00 267.52,879.00 C267.64,879.00 268.94,880.82 270.41,883.05 C271.89,885.27 274.72,888.89 276.70,891.09 L 280.31 895.09 L 276.96 898.54 C273.48,902.13 271.25,902.89 270.50,900.75 ZM 701.75 830.34 C699.02,829.87 699.05,829.82 704.75,824.94 C707.91,822.23 710.72,820.06 711.00,820.10 C711.97,820.27 719.29,829.04 718.84,829.49 C718.12,830.21 704.80,830.87 701.75,830.34 ZM 754.44 816.90 C754.18,816.48 754.42,815.86 754.98,815.51 C755.54,815.16 756.50,812.90 757.11,810.47 C758.63,804.46 759.81,803.69 764.28,805.78 C767.78,807.43 769.11,809.00 767.00,809.00 C766.45,809.00 765.99,809.79 765.99,810.75 C765.98,812.62 755.31,818.30 754.44,816.90 ZM 744.01 811.51 C742.14,810.13 740.04,809.00 739.34,809.00 C738.64,809.00 738.31,808.36 738.61,807.59 C739.14,806.19 749.69,801.36 750.48,802.15 C750.99,802.65 749.19,810.85 748.16,812.67 C747.57,813.73 746.68,813.48 744.01,811.51 ZM 729.00 827.50 C729.00,827.23 730.63,824.74 732.62,821.97 L 736.24 816.93 L 739.20 819.21 C740.83,820.47 742.18,821.95 742.19,822.50 C742.20,823.05 739.35,824.51 735.85,825.74 C730.27,827.71 729.23,828.09 729.04,827.84 C728.99,827.77 729.00,827.65 729.00,827.50 ZM 719.97 816.47 C716.27,812.70 715.91,812.00 717.65,812.00 C718.79,812.00 721.81,811.71 724.36,811.36 L 728.99 810.73 L 727.84 814.11 C725.41,821.25 724.83,821.42 719.97,816.47 ZM 277.65 926.75 C276.19,923.31 275.00,920.16 275.00,919.73 C275.00,919.31 277.14,921.11 279.75,923.73 C284.17,928.17 284.40,928.66 283.13,930.75 C282.38,931.99 281.44,933.00 281.04,933.00 C280.63,933.00 279.11,930.19 277.65,926.75 ZM 778.35 801.00 C779.06,798.31 779.97,797.00 781.12,797.00 C783.52,797.00 786.00,798.05 786.00,799.07 C786.00,799.93 779.08,805.00 777.91,805.00 C777.56,805.00 777.76,803.20 778.35,801.00 ZM 791.61 792.36 C789.37,791.14 789.03,790.59 790.11,789.91 C791.89,788.79 797.09,788.77 798.85,789.89 C799.91,790.56 799.70,791.10 797.88,792.37 C796.59,793.27 795.93,793.76 795.23,793.82 C794.42,793.90 793.56,793.41 791.61,792.36 ZM 765.00 798.54 L 761.50 797.23 L 764.32 796.12 C768.66,794.39 770.00,794.72 770.00,797.50 C770.00,800.32 769.85,800.35 765.00,798.54 ZM 554.42 176.57 C554.20,176.05 553.94,175.48 553.65,174.94 C551.98,171.73 550.69,164.00 551.83,164.00 C552.30,164.00 553.25,165.91 553.95,168.25 C556.35,176.28 564.29,188.13 572.65,196.16 C573.07,196.57 573.50,196.97 573.92,197.36 C567.94,192.12 562.28,184.94 557.43,176.25 C554.49,170.98 552.37,169.26 553.43,173.00 C553.69,173.91 554.10,175.39 554.42,176.57 ZM 283.23 937.81 C283.45,937.16 284.16,936.45 284.81,936.23 C285.54,935.99 285.77,936.44 285.39,937.42 C284.70,939.23 282.63,939.61 283.23,937.81 ZM 576.94 208.15 C572.44,205.04 567.54,200.29 564.13,195.61 C563.47,194.70 562.74,193.61 561.99,192.41 C566.26,198.69 571.67,204.49 576.94,208.15 ZM 555.82 180.95 C555.41,179.99 555.13,179.22 555.03,178.72 C555.27,179.46 555.53,180.20 555.82,180.95 Z" fill="rgba(26,91,91,1)"/>
<path d="M 680.50 919.40 C662.62,916.73 641.26,911.24 633.06,907.20 C630.54,905.96 629.37,904.55 628.72,902.00 C628.22,900.08 627.46,898.05 627.02,897.50 C626.58,896.95 625.44,892.90 624.48,888.50 C623.52,884.10 622.41,880.05 622.00,879.50 C621.59,878.95 620.50,875.02 619.56,870.77 C618.63,866.52 617.50,862.81 617.04,862.52 C616.58,862.24 615.65,859.64 614.97,856.75 C614.29,853.86 613.07,850.20 612.26,848.60 L 610.80 845.71 L 619.15 846.37 C627.55,847.04 642.72,845.70 645.83,844.01 C646.75,843.51 649.86,842.37 652.74,841.48 C656.75,840.23 659.01,838.67 662.37,834.83 L 666.76 829.81 L 671.00 832.88 C676.17,836.63 689.05,840.64 698.50,841.45 C705.77,842.07 725.66,840.46 727.47,839.11 C728.04,838.68 731.20,837.76 734.50,837.06 C737.80,836.35 742.39,834.93 744.70,833.89 C747.00,832.85 749.35,832.00 749.92,832.00 C750.93,832.00 762.13,826.75 765.00,824.93 C765.83,824.40 768.30,823.09 770.50,822.02 C779.00,817.85 788.35,811.63 805.54,798.70 C817.35,789.80 817.77,789.74 829.63,795.06 C840.06,799.73 857.02,813.53 855.46,816.07 C855.23,816.43 853.19,816.98 850.91,817.28 C845.87,817.96 841.57,821.74 838.73,828.00 C837.05,831.72 836.71,834.46 836.77,843.87 C836.81,850.57 837.28,855.68 837.92,856.32 C838.51,856.91 839.00,860.83 839.00,865.01 L 839.00 872.62 L 832.46 878.06 C828.87,881.05 824.70,884.17 823.21,885.00 C821.72,885.83 818.43,887.90 815.91,889.61 C809.76,893.77 790.85,902.76 783.50,905.01 C781.30,905.68 778.15,906.82 776.50,907.54 C770.94,909.96 756.59,913.22 743.00,915.14 C735.58,916.19 728.15,917.51 726.50,918.07 C723.42,919.12 685.88,920.20 680.50,919.40 ZM 249.56 967.57 C248.81,962.53 245.14,957.40 238.77,952.48 C234.14,948.90 225.58,943.83 220.00,941.35 C216.96,940.01 203.77,931.49 198.81,927.67 C197.88,926.95 196.58,924.15 195.92,921.43 C195.25,918.72 194.37,916.05 193.95,915.50 C193.01,914.26 190.00,891.39 190.00,885.47 C190.00,883.08 189.55,880.84 189.00,880.50 C187.73,879.71 187.66,848.79 188.92,844.57 C189.42,842.88 190.55,835.24 191.42,827.60 C192.30,819.95 193.40,813.20 193.87,812.60 C194.34,811.99 195.52,808.12 196.50,804.00 C197.48,799.88 198.61,796.05 199.01,795.50 C199.42,794.95 200.09,793.38 200.50,792.00 C200.90,790.62 202.98,785.76 205.12,781.19 C207.25,776.62 209.00,772.69 209.00,772.46 C209.00,772.23 210.68,769.44 212.73,766.27 C214.78,763.10 217.14,759.27 217.98,757.77 C220.68,752.93 230.46,741.62 236.06,736.86 L 241.50 732.24 L 248.50 733.21 C257.13,734.40 293.58,733.73 297.00,732.31 C298.38,731.74 301.13,730.98 303.11,730.62 L 306.73 729.96 L 307.20 742.32 C307.47,749.11 308.09,755.31 308.59,756.09 C309.08,756.86 309.97,759.82 310.55,762.66 L 311.60 767.82 L 306.31 768.48 C303.40,768.84 299.78,769.74 298.26,770.46 C296.74,771.19 293.80,772.56 291.72,773.52 C289.64,774.47 284.47,778.97 280.22,783.51 C273.77,790.41 271.41,793.96 265.84,805.13 C258.40,820.08 256.32,827.34 255.71,840.50 C255.29,849.50 256.21,867.28 257.33,872.00 C257.65,873.38 258.84,880.58 259.96,888.00 C261.08,895.42 262.42,902.62 262.93,904.00 C263.45,905.38 264.59,910.25 265.48,914.84 C266.37,919.43 267.51,923.93 268.01,924.84 C268.51,925.75 270.05,928.97 271.43,932.00 C272.80,935.03 275.52,939.96 277.47,942.97 C279.41,945.97 281.00,948.67 281.00,948.97 C281.00,950.80 269.70,962.80 265.06,965.90 C260.53,968.93 253.33,972.00 250.75,972.00 C250.46,972.00 249.93,970.01 249.56,967.57 ZM 604.37 489.05 C578.87,476.02 570.25,471.37 567.92,469.36 C567.05,468.61 566.07,468.00 565.73,468.00 C564.51,468.00 536.97,450.32 523.36,440.80 C501.61,425.58 478.59,405.96 466.72,392.53 L 459.67 384.55 L 463.76 383.53 C466.02,382.96 468.19,382.16 468.60,381.75 C470.57,379.74 474.29,381.50 481.79,388.00 C486.24,391.85 490.10,395.00 490.38,395.00 C490.66,395.00 495.61,398.71 501.40,403.25 C517.62,415.98 532.63,427.00 533.74,427.00 C534.30,427.00 535.32,427.68 536.00,428.51 C536.69,429.33 544.51,434.79 553.38,440.62 C562.24,446.46 571.37,452.53 573.66,454.11 C575.95,455.70 578.12,457.00 578.48,457.00 C578.84,457.00 581.10,458.35 583.50,460.00 C585.90,461.65 588.14,463.00 588.49,463.00 C588.83,463.00 591.67,464.73 594.80,466.84 C597.94,468.96 601.71,471.32 603.18,472.09 C604.66,472.87 610.06,475.92 615.18,478.88 C626.77,485.58 641.06,493.38 647.00,496.26 L 651.50 498.43 L 643.50 499.15 C639.10,499.55 633.64,500.07 631.37,500.30 C627.68,500.68 624.81,499.49 604.37,489.05 ZM 666.00 492.51 C662.42,490.59 657.59,488.03 655.25,486.81 C650.53,484.36 650.05,483.44 652.97,482.51 C655.06,481.85 668.99,467.14 669.00,465.59 C669.00,465.10 670.05,463.30 671.34,461.59 C673.40,458.88 678.56,448.69 683.30,438.00 C684.15,436.08 685.40,432.25 686.07,429.50 C686.74,426.75 687.63,424.05 688.04,423.50 C688.88,422.38 692.00,404.91 692.00,401.32 C692.00,397.13 694.74,398.86 698.24,405.25 C702.16,412.41 704.00,418.88 704.00,425.48 C704.00,430.51 701.29,444.90 700.04,446.50 C699.61,447.05 698.69,449.30 698.00,451.50 C696.43,456.51 691.33,467.38 688.39,472.00 C687.16,473.92 685.11,477.30 683.83,479.50 C679.95,486.16 673.53,495.91 673.00,495.95 C672.72,495.97 669.58,494.42 666.00,492.51 Z" fill="rgba(24,146,155,1)"/>
<path d="M 891.11 320.21 C887.18,312.85 862.19,298.24 848.00,295.00 C844.97,294.30 842.05,293.41 841.50,293.00 C839.68,291.66 819.67,288.61 805.00,287.44 C801.97,287.20 782.85,286.55 762.50,286.00 C760.42,285.94 758.41,285.89 756.46,285.83 C756.57,285.83 756.68,285.83 756.79,285.83 L 776.07 286.00 L 778.04 281.42 C780.39,275.92 780.39,275.91 778.50,276.64 C778.49,276.64 778.48,276.64 778.48,276.65 C779.34,276.04 780.81,274.73 782.28,273.23 C786.87,268.53 792.38,257.42 794.06,249.50 C794.76,246.20 795.65,243.05 796.04,242.50 C797.56,240.38 799.36,219.79 799.38,204.50 C799.39,189.83 797.84,174.96 796.04,172.50 C795.74,172.09 795.16,170.54 794.59,168.71 C795.17,170.53 795.80,172.06 796.15,172.45 C797.31,173.75 797.24,164.43 796.07,162.24 C795.56,161.28 794.64,157.12 794.03,153.00 C793.30,148.08 792.53,145.47 790.63,143.71 C794.96,145.87 800.76,148.85 807.25,152.25 C809.31,153.33 811.00,154.61 811.00,155.10 C811.00,155.60 811.56,156.01 812.25,156.02 C812.94,156.03 816.78,158.50 820.80,161.52 C824.81,164.53 828.35,167.00 828.67,167.00 C830.14,167.00 847.07,182.32 855.66,191.42 C868.63,205.15 881.03,224.47 886.52,239.50 C887.52,242.25 888.70,244.98 889.14,245.56 C889.57,246.15 890.87,250.42 892.01,255.06 C893.16,259.70 894.54,265.08 895.09,267.00 C898.09,277.47 896.97,315.92 893.54,320.62 C892.35,322.25 892.19,322.22 891.11,320.21 ZM 737.80 345.47 C737.58,345.25 735.58,344.94 732.97,344.69 C735.11,344.15 736.44,342.17 739.66,337.25 C742.45,332.99 747.97,325.67 751.93,321.00 C755.89,316.33 760.63,310.25 762.46,307.50 L 765.81 302.50 L 746.65 301.93 C742.23,301.80 737.57,301.53 733.00,301.17 C739.28,301.44 747.84,301.55 761.50,301.64 C815.54,301.98 837.96,303.21 841.50,306.00 C842.05,306.43 845.42,307.58 849.00,308.55 C855.83,310.41 876.00,319.59 876.00,320.84 C876.00,321.24 873.64,322.07 870.75,322.68 C855.85,325.84 846.33,328.14 844.89,328.95 C844.00,329.44 839.28,330.62 834.39,331.57 C829.50,332.52 825.05,333.64 824.49,334.07 C823.94,334.50 819.44,335.57 814.49,336.47 C809.55,337.36 804.49,338.59 803.25,339.21 C799.20,341.24 799.77,339.26 803.90,336.94 C808.26,334.49 812.12,330.13 816.32,322.92 C819.30,317.81 821.05,309.00 819.08,309.00 C817.65,309.00 811.01,316.06 811.00,317.59 C811.00,318.19 807.88,322.11 804.06,326.29 C795.82,335.33 794.42,337.60 795.94,339.43 C797.02,340.73 789.74,342.15 767.50,344.99 C759.80,345.96 738.64,346.31 737.80,345.47 ZM 833.36 278.13 C835.74,276.04 839.54,268.51 840.49,264.00 C840.90,262.08 841.62,260.02 842.09,259.43 C842.56,258.85 843.44,252.02 844.05,244.27 C845.52,225.52 844.05,206.53 840.57,199.39 L 838.19 194.50 L 837.09 197.32 C836.44,198.99 835.99,207.88 835.97,219.32 C835.95,239.03 834.67,257.40 833.19,259.38 C832.73,260.00 831.52,263.33 830.50,266.80 C829.49,270.26 828.28,273.33 827.83,273.61 C827.37,273.89 827.00,275.70 827.00,277.63 C827.00,280.80 827.21,281.07 829.25,280.45 C830.49,280.07 832.34,279.03 833.36,278.13 ZM 755.00 333.20 C763.40,324.47 768.08,316.19 768.79,308.83 C769.05,306.17 768.90,304.00 768.46,304.00 C767.31,304.00 764.00,307.14 764.00,308.23 C764.00,309.79 753.42,323.23 748.07,328.46 C745.28,331.19 743.00,333.86 743.00,334.38 C743.00,334.91 742.28,336.14 741.40,337.11 C739.27,339.47 740.41,341.00 744.31,341.00 C746.97,341.00 748.71,339.73 755.00,333.20 ZM 722.78 284.34 C715.03,283.77 710.47,283.11 708.47,282.32 C710.72,282.85 716.41,283.64 722.78,284.34 ZM 701.23 296.03 C702.19,296.56 708.49,297.99 715.23,299.21 C715.34,299.23 715.44,299.24 715.55,299.26 C708.53,298.25 703.14,297.09 701.23,296.03 ZM 777.03 274.54 C777.01,274.17 777.00,273.74 777.00,273.26 C777.00,271.55 777.60,268.54 778.43,265.52 C777.60,268.85 777.05,272.30 777.03,274.54 ZM 701.82 335.51 L 697.65 333.47 C696.02,332.67 694.09,331.62 692.13,330.48 C694.72,331.94 697.82,333.54 701.82,335.51 ZM 724.86 343.84 C723.72,343.64 722.90,343.41 722.63,343.21 C722.42,343.06 721.93,342.84 721.25,342.59 C721.78,342.77 722.21,342.93 722.50,343.05 C723.10,343.31 723.97,343.60 724.86,343.84 ZM 706.13 281.43 C704.94,281.10 703.41,280.76 701.96,280.52 C698.36,279.94 692.11,278.06 685.64,275.76 C692.13,278.07 698.40,279.94 702.00,280.51 C703.53,280.75 705.06,281.10 706.13,281.43 ZM 782.30 139.93 C782.48,139.98 782.62,140.01 782.70,140.01 C782.84,140.01 783.45,140.25 784.44,140.71 C783.81,140.49 783.07,140.22 782.30,139.93 ZM 714.18 340.59 C711.65,339.91 709.11,339.06 708.00,338.52 L 704.42 336.77 C705.54,337.32 706.74,337.90 708.00,338.50 C709.16,339.06 711.74,339.92 714.18,340.59 Z" fill="rgba(254,0,0,1)"/>
<path d="M 400.01 189.18 C400.01,188.26 400.69,183.03 401.51,177.56 C403.09,167.06 404.83,161.00 406.26,161.00 C406.74,161.00 409.59,159.88 412.59,158.50 C415.60,157.12 418.22,156.00 418.42,156.00 C419.27,156.00 451.09,138.08 455.38,135.18 C457.98,133.43 460.35,132.00 460.66,132.00 C461.51,132.00 472.12,124.35 481.35,117.08 C497.59,104.29 513.56,89.76 518.39,83.38 C520.10,81.12 525.51,74.82 530.41,69.38 C535.31,63.95 540.59,57.70 542.15,55.50 C556.44,35.32 562.39,26.16 564.91,20.48 L 566.89 16.00 L 578.38 16.00 C584.97,16.00 590.15,16.43 590.50,17.00 C590.84,17.55 592.61,18.00 594.43,18.00 C598.78,18.00 614.95,20.77 617.50,21.95 C618.60,22.46 622.20,23.61 625.50,24.51 C633.20,26.60 638.94,29.20 638.97,30.60 C639.00,31.86 635.76,36.44 627.72,46.50 C624.64,50.35 621.24,54.62 620.17,56.00 C610.57,68.24 566.47,111.97 563.69,111.99 C563.25,112.00 557.49,116.61 550.90,122.25 C544.31,127.89 538.35,132.73 537.66,133.00 C536.97,133.27 532.54,136.54 527.81,140.25 C523.08,143.96 518.97,147.00 518.67,147.00 C518.37,147.00 514.74,149.36 510.62,152.25 C499.72,159.87 495.38,162.45 482.77,168.81 C470.75,174.87 463.07,178.33 459.00,179.51 C457.62,179.92 456.05,180.60 455.50,181.03 C454.95,181.47 451.58,182.58 448.00,183.50 C444.42,184.42 441.05,185.53 440.50,185.95 C439.95,186.38 438.83,186.77 438.00,186.83 C437.17,186.89 433.35,187.57 429.50,188.35 C425.65,189.13 417.44,190.01 411.25,190.31 C401.16,190.80 400.00,190.69 400.01,189.18 ZM 692.00 941.01 C686.22,940.56 679.25,939.72 676.50,939.15 C673.75,938.58 667.93,937.38 663.58,936.49 C654.49,934.62 642.59,929.33 639.06,925.57 C636.25,922.57 636.90,922.45 644.70,924.58 C647.89,925.45 651.17,926.27 652.00,926.40 C652.83,926.53 654.17,926.91 655.00,927.25 C662.41,930.25 694.42,932.27 714.94,931.03 C732.60,929.96 754.33,927.40 756.92,926.08 C757.79,925.65 761.42,924.73 765.00,924.05 C768.58,923.37 773.39,921.95 775.70,920.91 C778.00,919.86 780.34,919.00 780.88,919.00 C781.42,919.00 783.14,918.46 784.68,917.80 C786.23,917.15 787.95,916.55 788.50,916.47 C791.96,916.00 817.63,903.13 824.81,898.27 C828.29,895.92 831.36,894.00 831.64,894.00 C831.93,894.00 834.09,892.42 836.43,890.50 C838.78,888.58 841.09,887.00 841.56,887.00 C843.49,887.00 832.87,896.60 824.05,902.83 C813.07,910.57 812.45,910.94 799.38,917.33 C793.94,919.98 788.71,922.58 787.74,923.09 C786.77,923.61 783.84,924.73 781.24,925.58 C778.63,926.44 775.15,927.75 773.50,928.49 C771.85,929.24 768.25,930.40 765.50,931.07 C762.75,931.74 760.05,932.63 759.50,933.04 C758.95,933.45 754.67,934.53 750.00,935.44 C745.33,936.35 740.60,937.51 739.50,938.02 C734.04,940.53 707.39,942.21 692.00,941.01 ZM 198.27 965.45 C194.82,961.84 192.00,958.49 192.00,958.00 C192.00,957.50 190.60,955.02 188.88,952.48 C181.10,940.95 173.01,915.74 171.41,898.00 C171.04,893.88 170.31,889.97 169.80,889.32 C168.57,887.77 168.61,841.70 169.84,839.32 C170.35,838.32 171.50,831.32 172.37,823.76 C173.25,816.21 174.40,809.23 174.93,808.26 C175.45,807.29 176.64,803.12 177.58,799.00 C178.51,794.88 179.61,791.05 180.01,790.50 C180.42,789.95 181.44,787.25 182.29,784.50 C184.59,777.02 188.97,766.95 191.64,763.02 C192.94,761.10 194.00,759.16 194.00,758.69 C194.00,757.37 204.47,743.83 208.07,740.50 C211.80,737.04 211.31,738.15 205.42,746.50 C200.88,752.93 191.88,770.62 189.38,778.00 C188.55,780.47 187.27,783.85 186.55,785.50 C185.83,787.15 184.68,790.97 183.99,794.00 C183.30,797.03 182.40,799.95 181.98,800.50 C181.56,801.05 180.46,806.22 179.55,812.00 C178.63,817.78 177.44,823.91 176.91,825.64 C176.38,827.36 175.93,830.06 175.91,831.64 C175.89,833.21 175.55,840.58 175.16,848.00 C174.35,863.23 175.45,896.60 176.92,901.36 C177.44,903.09 178.63,909.22 179.55,915.00 C180.46,920.78 181.57,925.95 182.01,926.50 C182.45,927.05 183.34,929.53 184.00,932.00 C184.65,934.47 186.27,938.88 187.60,941.78 C188.92,944.68 190.00,947.32 190.00,947.64 C190.00,948.74 199.35,963.49 202.75,967.75 C207.83,974.13 205.36,972.86 198.27,965.45 ZM 231.47 971.59 C222.98,967.15 218.44,963.47 212.33,956.07 C209.41,952.53 207.15,949.52 207.30,949.37 C207.63,949.03 213.16,951.02 218.00,953.21 C219.93,954.08 222.62,955.28 224.00,955.87 C227.59,957.43 234.70,961.50 236.64,963.12 C240.45,966.27 242.00,975.23 238.68,974.87 C238.03,974.80 234.79,973.33 231.47,971.59 ZM 849.63 848.17 C848.59,835.68 850.08,830.70 855.52,828.43 C864.17,824.81 864.00,830.28 854.86,849.67 C851.32,857.20 850.37,856.93 849.63,848.17 ZM 788.26 157.83 L 789.81 159.29 C791.11,160.51 792.86,163.07 793.70,165.00 C795.95,170.16 796.24,167.51 794.63,156.54 C795.15,159.28 795.71,161.56 796.07,162.24 C797.24,164.43 797.31,173.75 796.15,172.45 C795.68,171.93 794.73,169.40 794.04,166.84 C793.35,164.27 791.59,161.02 790.12,159.62 L 788.26 157.83 ZM 793.54 150.11 C793.17,148.37 792.77,147.02 792.26,145.94 C792.80,147.03 793.20,148.38 793.54,150.11 Z" fill="rgba(248,107,9,1)"/>
<path d="M 733.50 285.35 C722.27,284.48 708.38,282.69 707.50,282.00 C706.95,281.57 704.47,280.90 702.00,280.51 C695.04,279.41 678.16,273.46 668.88,268.85 C659.07,263.97 646.70,252.47 645.53,247.13 C644.83,243.96 645.60,238.33 646.99,236.50 C647.40,235.95 648.30,233.70 648.98,231.50 C649.66,229.30 650.76,226.60 651.42,225.50 C652.08,224.40 653.66,221.04 654.93,218.03 C656.20,215.02 658.99,209.69 661.12,206.18 C663.25,202.67 665.00,199.54 665.00,199.22 C665.00,198.91 667.81,194.82 671.25,190.13 C677.08,182.19 694.83,163.46 701.54,158.17 C710.33,151.24 718.92,145.00 719.66,145.00 C720.12,145.00 722.97,143.28 726.00,141.18 C729.03,139.09 735.38,135.48 740.12,133.18 C748.36,129.18 748.88,129.06 751.62,130.49 C753.21,131.31 755.29,131.99 756.26,131.99 C757.23,132.00 758.81,132.41 759.76,132.91 C760.72,133.42 764.20,134.37 767.50,135.02 C770.80,135.68 775.30,137.01 777.50,137.98 C779.70,138.95 783.08,140.26 785.00,140.89 C791.97,143.18 792.84,144.55 794.53,155.88 C796.25,167.41 795.99,170.27 793.70,165.00 C792.86,163.07 791.11,160.51 789.81,159.29 L 787.45 157.08 L 787.70 160.79 C789.62,190.26 789.94,204.24 789.02,219.27 C788.46,228.49 787.58,237.71 787.07,239.77 C784.74,249.08 782.74,255.59 781.90,256.61 C780.12,258.77 777.00,269.37 777.00,273.26 C777.00,276.36 777.32,277.09 778.50,276.64 C780.39,275.91 780.39,275.92 778.04,281.42 L 776.07 286.00 L 756.79 285.83 C746.18,285.74 735.70,285.52 733.50,285.35 ZM 737.03 272.99 C738.07,272.43 740.23,270.06 741.84,267.74 C744.73,263.52 751.99,247.10 752.01,244.74 C752.01,244.06 752.68,242.23 753.49,240.67 C754.30,239.11 755.69,233.98 756.57,229.26 C757.46,224.54 758.59,219.97 759.10,219.09 C760.48,216.71 764.17,189.92 764.69,178.50 C764.94,173.00 764.70,166.93 764.15,165.00 C763.60,163.07 762.71,158.75 762.16,155.38 C761.62,152.02 760.22,147.18 759.06,144.64 C757.90,142.09 756.52,138.88 756.00,137.50 C755.27,135.59 754.33,135.00 752.00,135.00 C747.75,135.00 737.97,139.16 730.95,143.96 C727.69,146.18 724.74,148.00 724.38,148.00 C721.02,148.00 682.00,187.04 682.00,190.40 C682.00,190.78 680.28,193.43 678.18,196.29 C673.62,202.52 667.56,214.76 665.96,221.00 C665.32,223.48 664.30,226.12 663.67,226.88 C663.02,227.67 662.53,232.06 662.52,237.21 L 662.50 246.17 L 670.15 253.51 C677.60,260.65 685.30,265.39 693.59,267.94 C695.74,268.60 698.40,269.57 699.50,270.09 C706.31,273.34 732.59,275.36 737.03,272.99 ZM 640.50 634.06 C634.48,632.32 627.40,629.28 623.00,626.56 C618.21,623.59 609.00,615.15 609.00,613.72 C609.00,613.25 607.92,611.43 606.61,609.68 C596.96,596.83 595.31,576.12 602.75,561.16 C606.89,552.84 618.05,542.01 626.53,538.08 C630.36,536.31 634.58,534.33 635.90,533.68 C637.36,532.96 643.24,532.50 650.90,532.50 C661.94,532.50 664.24,532.80 669.50,534.93 C682.99,540.40 693.80,550.97 698.74,563.50 C701.16,569.64 701.50,571.85 701.50,581.50 C701.50,590.61 701.10,593.52 699.19,598.44 C693.64,612.73 684.32,623.37 672.50,628.91 C668.65,630.72 664.61,632.67 663.52,633.25 C660.98,634.60 644.42,635.18 640.50,634.06 ZM 727.00 344.32 C725.62,344.10 723.60,343.53 722.50,343.05 C721.40,342.58 718.25,341.63 715.50,340.94 C712.75,340.26 709.38,339.16 708.00,338.50 C694.12,331.86 688.87,328.94 683.35,324.82 C679.81,322.17 676.55,320.00 676.11,320.00 C674.60,320.00 663.33,307.47 659.64,301.67 C657.59,298.46 655.25,293.74 654.43,291.17 C653.61,288.60 652.52,285.75 652.01,284.84 C651.51,283.92 650.78,280.82 650.40,277.94 C649.82,273.59 649.94,272.84 651.10,273.54 C651.87,274.01 654.75,275.81 657.50,277.55 C662.12,280.47 674.45,286.66 683.13,290.41 C685.13,291.27 689.63,292.67 693.13,293.52 C696.63,294.37 700.28,295.50 701.23,296.03 C705.58,298.45 728.10,301.38 746.65,301.93 L 765.81 302.50 L 762.46 307.50 C760.63,310.25 755.89,316.33 751.93,321.00 C747.97,325.67 742.45,332.99 739.66,337.25 C734.34,345.39 734.17,345.49 727.00,344.32 ZM 594.15 292.40 C584.56,287.79 577.00,277.42 577.00,268.88 C577.00,267.91 576.55,266.84 576.00,266.50 C574.73,265.72 574.70,260.52 575.95,258.24 C576.47,257.28 577.17,254.74 577.52,252.59 C578.37,247.33 587.40,238.46 593.38,237.01 C595.65,236.46 598.72,235.60 600.22,235.10 C605.21,233.44 610.88,235.76 618.63,242.63 C624.47,247.82 625.95,249.76 626.88,253.42 C629.84,265.17 626.79,281.17 620.03,289.36 C615.04,295.41 603.27,296.79 594.15,292.40 ZM 726.14 333.98 C728.24,331.77 731.09,327.58 732.46,324.68 C736.35,316.45 736.27,312.57 732.10,308.11 C729.44,305.26 728.67,305.00 722.78,305.00 C716.01,305.00 705.18,303.34 703.50,302.05 C702.95,301.62 701.15,300.96 699.50,300.58 C696.31,299.84 695.37,299.44 676.00,290.63 C669.12,287.51 661.74,284.66 659.59,284.32 L 655.68 283.69 L 656.31 289.00 C656.69,292.14 657.98,295.88 659.47,298.14 C660.86,300.24 662.00,302.34 662.00,302.81 C662.00,304.22 676.16,317.18 682.80,321.86 C690.34,327.17 702.60,333.54 707.15,334.51 C708.99,334.91 710.96,335.60 711.51,336.04 C712.07,336.49 714.32,337.03 716.51,337.26 C718.71,337.48 720.91,337.74 721.40,337.83 C721.90,337.92 724.03,336.19 726.14,333.98 ZM 659.00 612.52 C678.44,609.95 680.00,609.30 680.00,603.69 L 680.00 599.72 L 672.28 600.42 C668.03,600.81 664.00,601.58 663.32,602.15 C660.43,604.55 660.00,601.68 660.00,580.07 C660.00,568.07 659.72,556.87 659.39,555.19 C657.99,548.19 651.41,545.88 645.29,550.25 C642.10,552.53 631.00,565.12 631.00,566.46 C631.00,566.86 630.10,568.33 629.00,569.73 C626.48,572.94 626.45,576.19 628.93,578.44 C631.60,580.85 633.95,579.86 640.91,573.42 C644.13,570.44 647.04,568.00 647.38,568.00 C647.72,568.00 648.00,576.10 648.00,586.00 L 648.00 604.00 L 641.75 604.10 C638.31,604.15 634.38,604.51 633.00,604.89 C629.77,605.78 629.25,609.25 631.94,611.94 C634.46,614.46 642.90,614.64 659.00,612.52 ZM 628.21 518.56 C628.49,512.74 628.61,512.49 631.50,511.87 C633.15,511.52 642.71,511.18 652.75,511.12 L 671.00 511.00 L 671.00 518.11 C671.00,524.47 670.82,525.14 669.25,524.54 C668.29,524.16 662.55,523.37 656.50,522.77 C647.58,521.88 643.84,521.95 636.71,523.15 L 627.91 524.61 Z" fill="rgba(250,198,93,1)"/>
<path d="M 624.50 831.35 C622.30,831.13 619.60,830.55 618.50,830.06 C617.40,829.58 613.21,828.43 609.19,827.51 C605.17,826.59 600.67,825.23 599.19,824.49 C597.71,823.75 592.97,821.42 588.65,819.32 C579.17,814.71 570.02,806.63 563.71,797.31 C559.76,791.48 556.00,784.28 556.00,782.56 C556.00,782.28 558.59,781.33 561.75,780.45 C564.91,779.57 568.85,778.25 570.50,777.52 C572.15,776.79 575.08,775.74 577.00,775.20 C587.47,772.24 623.46,755.27 631.71,749.40 C634.34,747.53 636.86,746.00 637.32,746.00 C637.77,746.00 640.10,744.65 642.50,743.00 C644.90,741.35 647.29,740.00 647.81,740.00 C649.03,740.00 650.72,751.09 652.00,767.50 C652.56,774.65 653.46,785.00 654.01,790.50 C654.56,796.00 655.01,805.40 655.01,811.39 C655.00,821.54 654.84,822.41 652.65,824.39 C645.95,830.41 636.99,832.63 624.50,831.35 ZM 339.32 790.07 C332.03,784.26 326.51,775.78 323.92,766.42 C322.72,762.06 321.23,757.42 320.62,756.10 C319.26,753.18 319.08,719.42 320.41,716.50 C320.92,715.40 321.40,714.28 321.50,714.00 C321.60,713.72 321.95,712.83 322.29,712.00 C322.90,710.52 323.81,707.28 328.59,689.50 C329.92,684.55 331.42,679.60 331.93,678.50 C332.44,677.40 333.60,674.03 334.50,671.00 C335.40,667.97 336.54,664.60 337.02,663.50 C337.50,662.40 339.11,658.35 340.59,654.50 C342.06,650.65 346.25,641.65 349.89,634.50 C355.63,623.21 357.55,620.45 364.50,613.49 C368.90,609.09 376.10,602.80 380.50,599.52 C399.62,585.25 421.68,564.57 438.25,545.37 C443.06,539.80 447.00,534.95 447.00,534.60 C447.00,534.24 450.38,529.71 454.50,524.53 C458.62,519.35 462.00,514.86 462.00,514.55 C462.00,514.25 465.49,509.52 469.75,504.04 C474.01,498.57 479.06,491.99 480.96,489.42 C485.33,483.52 506.55,461.40 513.04,455.96 L 517.94 451.86 L 525.22 456.76 C529.23,459.46 534.53,463.04 537.00,464.73 C543.25,468.99 551.66,474.32 557.00,477.41 C559.47,478.84 564.79,481.92 568.81,484.26 C580.71,491.16 594.91,498.74 604.00,503.04 C620.78,510.99 619.39,509.61 620.28,519.14 C621.06,527.48 621.05,527.51 618.28,529.75 C616.75,530.98 614.93,531.99 614.24,532.00 C613.55,532.00 609.86,535.07 606.03,538.83 C600.45,544.32 598.15,547.58 594.39,555.35 C589.79,564.88 589.70,565.22 589.22,576.99 C588.50,594.58 590.04,600.37 600.17,618.16 C602.70,622.60 612.20,632.06 617.00,634.91 C629.90,642.59 638.06,645.01 650.89,644.98 C664.80,644.95 674.89,641.65 685.96,633.53 C690.89,629.91 701.00,618.71 701.00,616.86 C701.00,616.33 702.12,614.24 703.50,612.21 C704.88,610.19 706.00,607.85 706.01,607.02 C706.01,606.18 706.68,604.22 707.50,602.65 C711.67,594.65 711.98,571.30 708.03,562.50 C704.22,554.02 702.79,551.06 701.04,548.04 C698.91,544.38 688.11,533.00 686.77,533.00 C686.33,533.00 684.41,531.99 682.50,530.75 L 679.02 528.50 L 679.01 518.81 C679.01,513.44 678.55,508.84 678.00,508.50 C675.60,507.02 677.13,502.81 681.75,498.15 C690.32,489.50 700.48,474.73 704.57,465.00 C705.37,463.08 706.68,460.15 707.46,458.50 C708.25,456.85 709.54,453.49 710.33,451.04 C711.12,448.58 712.16,446.45 712.64,446.30 C713.53,446.02 716.37,451.61 717.56,456.00 C717.93,457.38 719.06,460.33 720.06,462.56 C721.06,464.79 722.42,468.84 723.08,471.56 C723.75,474.28 724.63,476.95 725.04,477.50 C725.45,478.05 726.53,482.33 727.44,487.00 C728.35,491.67 729.51,496.40 730.02,497.50 C731.87,501.48 734.00,526.91 734.00,545.01 C734.00,562.85 731.93,587.32 730.13,590.81 C729.65,591.74 728.50,596.10 727.56,600.50 C726.63,604.90 725.22,609.92 724.43,611.65 C723.64,613.38 723.00,615.28 723.00,615.87 C723.00,616.46 721.88,619.40 720.50,622.41 C719.12,625.41 718.00,628.13 718.00,628.46 C718.00,629.98 709.19,647.14 705.81,652.20 C703.71,655.33 702.00,658.17 702.00,658.52 C702.00,659.09 693.54,670.83 691.04,673.71 C690.47,674.37 690.00,675.18 690.00,675.50 C690.00,676.82 681.85,686.93 675.88,693.00 C669.06,699.95 652.75,714.00 651.50,714.00 C651.09,714.00 647.97,715.98 644.57,718.41 C631.69,727.60 592.08,748.05 579.50,752.00 C577.30,752.70 575.05,753.60 574.50,754.02 C573.95,754.44 570.58,755.58 567.00,756.55 C563.42,757.52 560.05,758.65 559.50,759.05 C558.95,759.46 554.67,760.53 550.00,761.44 C545.33,762.35 540.60,763.51 539.50,764.02 C531.99,767.46 490.94,769.06 474.02,766.56 C467.71,765.63 462.08,764.52 461.52,764.10 C460.96,763.68 458.02,762.80 454.99,762.15 C451.97,761.50 448.28,760.34 446.81,759.58 C445.34,758.81 442.76,757.89 441.08,757.52 C439.40,757.15 437.77,756.44 437.46,755.94 C437.15,755.44 439.06,752.36 441.70,749.10 C448.43,740.78 454.57,732.04 459.96,723.13 C467.94,709.92 479.27,685.90 482.18,676.00 C482.74,674.08 483.55,672.05 483.96,671.50 C484.38,670.95 485.49,667.35 486.44,663.50 C487.39,659.65 488.61,655.67 489.15,654.66 C492.00,649.30 494.18,628.44 491.80,629.23 C490.50,629.67 486.83,635.47 484.37,641.00 C483.52,642.92 480.83,648.63 478.41,653.68 C475.98,658.73 474.00,663.16 474.00,663.51 C474.00,664.62 459.49,693.29 456.68,697.73 C455.20,700.06 454.00,702.23 454.00,702.56 C454.00,703.18 449.03,711.09 443.67,719.00 C433.48,734.05 416.56,752.08 402.76,762.61 C391.97,770.84 390.09,771.96 368.45,782.96 C360.17,787.17 352.31,791.37 350.98,792.30 C347.31,794.87 344.74,794.38 339.32,790.07 ZM 642.47 480.64 C641.39,479.89 637.35,477.57 633.50,475.49 C629.65,473.41 625.99,471.31 625.36,470.83 C624.74,470.34 622.26,468.92 619.86,467.66 C612.84,464.00 605.62,459.84 604.00,458.53 C603.17,457.86 598.00,454.67 592.50,451.44 C587.00,448.21 579.66,443.64 576.19,441.29 C572.71,438.93 569.65,437.00 569.38,437.00 C567.86,437.00 557.05,428.74 557.53,427.95 C558.78,425.93 575.87,418.80 589.50,414.62 C593.35,413.44 596.95,412.19 597.50,411.85 C598.05,411.50 603.22,410.45 609.00,409.50 C614.78,408.56 620.58,407.27 621.90,406.65 C625.20,405.07 665.15,405.06 667.10,406.64 C667.87,407.26 670.77,408.08 673.55,408.45 C676.32,408.83 679.08,409.44 679.67,409.82 C681.79,411.17 673.16,435.43 664.49,452.50 C658.48,464.33 647.14,482.00 645.56,482.00 C644.95,482.00 643.56,481.39 642.47,480.64 ZM 580.50 369.37 C577.20,369.15 573.60,368.58 572.50,368.12 C571.40,367.65 565.82,366.53 560.09,365.63 C554.37,364.72 549.19,363.61 548.59,363.15 C547.99,362.69 545.25,361.73 542.50,361.02 C528.64,357.45 499.45,341.27 493.13,333.65 C492.37,332.74 491.45,332.00 491.09,332.00 C489.00,332.00 459.03,302.68 454.66,296.37 C453.47,294.65 449.01,288.98 444.75,283.76 C440.49,278.54 437.00,273.93 437.00,273.52 C437.00,273.11 435.50,270.68 433.66,268.13 C431.82,265.59 430.01,262.83 429.64,262.00 C429.27,261.17 427.65,258.48 426.03,256.00 C421.50,249.04 412.19,229.62 409.98,222.50 C409.30,220.30 408.39,218.05 407.96,217.50 C407.53,216.95 406.53,213.97 405.72,210.88 L 404.26 205.27 L 413.38 205.65 C426.10,206.19 443.11,207.95 445.50,208.97 C446.60,209.44 452.42,210.59 458.43,211.52 C464.45,212.45 470.07,213.59 470.93,214.05 C471.80,214.51 475.88,215.65 480.00,216.59 C484.12,217.53 488.39,218.90 489.47,219.65 C490.56,220.39 492.05,221.00 492.80,221.00 C493.54,221.00 498.95,223.29 504.82,226.10 C510.70,228.90 517.26,231.83 519.41,232.61 C521.57,233.39 523.82,234.41 524.41,234.88 C525.01,235.35 527.30,236.31 529.50,237.00 C531.70,237.69 533.99,238.65 534.59,239.12 C535.19,239.60 535.97,239.70 536.32,239.35 C536.67,239.00 537.62,239.27 538.43,239.94 C539.24,240.62 544.46,241.68 550.03,242.29 L 560.15 243.42 L 559.55 245.96 C558.23,251.54 557.84,265.82 558.86,271.30 C561.77,286.81 573.49,302.70 586.78,309.14 C593.03,312.17 594.24,312.40 604.00,312.45 C613.51,312.50 615.03,312.24 620.14,309.73 C626.01,306.85 633.36,299.80 635.00,295.49 C636.23,292.26 637.38,292.34 638.93,295.75 C644.97,309.01 666.98,330.86 682.87,339.36 L 686.35 341.23 L 683.93 343.10 C682.59,344.13 680.69,345.24 679.69,345.57 C678.70,345.90 675.32,347.84 672.19,349.89 C666.26,353.76 651.03,361.00 648.79,361.01 C648.08,361.01 646.33,361.62 644.89,362.37 C643.46,363.12 637.83,364.51 632.39,365.46 C626.95,366.41 621.71,367.60 620.75,368.10 C618.84,369.10 590.05,370.01 580.50,369.37 ZM 630.37 230.91 L 627.28 227.82 L 632.21 223.21 C640.06,215.86 640.47,214.37 640.47,193.00 C640.48,175.82 639.01,161.16 637.02,158.50 C636.61,157.95 635.96,156.15 635.58,154.50 C634.52,149.97 629.09,139.13 625.05,133.50 C623.08,130.75 620.81,127.21 620.00,125.64 C616.89,119.54 606.25,111.94 594.62,107.50 L 591.74 106.40 L 600.48 98.30 C607.16,92.11 610.32,89.90 613.86,88.94 C616.41,88.25 619.07,87.25 619.77,86.71 C621.91,85.05 639.08,85.56 642.50,87.39 C644.15,88.27 646.08,88.99 646.79,88.99 C648.94,89.00 656.19,92.99 661.68,97.18 C668.33,102.25 674.38,110.27 675.89,116.00 C679.10,128.14 680.77,142.34 679.22,144.29 C678.70,144.95 677.95,149.06 677.58,153.41 L 676.89 161.32 L 670.31 168.41 C659.96,179.57 646.03,202.79 639.97,219.00 C639.25,220.93 638.36,222.95 637.99,223.50 C637.62,224.05 636.73,226.64 636.03,229.25 C635.32,231.86 634.45,234.00 634.10,234.00 C633.75,234.00 632.07,232.61 630.37,230.91 ZM 514.34 212.04 C509.88,209.95 504.50,207.67 502.37,206.99 C500.24,206.30 498.04,205.38 497.48,204.94 C496.92,204.50 493.32,203.39 489.48,202.48 C485.64,201.57 481.60,200.42 480.50,199.92 C479.40,199.43 474.27,198.35 469.11,197.54 C463.94,196.72 459.47,195.81 459.18,195.51 C458.22,194.56 460.35,193.29 465.98,191.47 C474.14,188.82 488.13,181.98 501.00,174.35 C513.59,166.89 520.83,162.18 527.17,157.34 C530.29,154.95 533.17,153.00 533.56,153.00 C534.39,153.00 533.27,168.48 532.01,174.46 C529.94,184.34 526.85,195.47 525.86,196.67 C525.27,197.38 524.54,201.81 524.25,206.51 C523.95,211.21 523.43,215.24 523.08,215.45 C522.72,215.67 518.79,214.13 514.34,212.04 ZM 580.00 210.04 C569.70,204.54 557.78,189.14 554.60,177.25 C554.27,176.01 553.74,174.10 553.43,173.00 C552.37,169.26 554.49,170.98 557.43,176.25 C567.45,194.22 580.97,205.72 593.50,206.92 L 599.50 207.50 L 595.88 209.75 C591.41,212.53 584.88,212.65 580.00,210.04 ZM 586.18 148.64 C583.91,147.38 582.22,145.03 579.97,140.00 C578.50,136.73 580.10,131.19 583.40,128.10 C586.22,125.44 588.21,125.79 592.36,129.63 C595.05,132.13 595.19,132.66 594.83,139.06 C594.55,143.90 593.90,146.45 592.57,147.93 C590.41,150.31 589.40,150.43 586.18,148.64 Z" fill="rgba(254,254,254,1)"/>
</g>
</svg>